<?xml version="1.0" encoding="UTF-8"?>
<svg version="1.1" xmlns="http://www.w3.org/2000/svg" width="512" height="512">
<path d="M0 0 C8.24125411 4.06917936 16.50189773 8.09897971 24.76025391 12.13330078 C25.64135834 12.56399872 26.52246277 12.99469666 27.43026733 13.43844604 C44.85323849 21.95110871 62.38045261 30.20678138 80.06494141 38.16455078 C81.17087646 38.66462646 82.27681152 39.16470215 83.41625977 39.67993164 C85.49215849 40.61719559 87.57090924 41.54818039 89.65307617 42.47143555 C96.18447901 45.41916604 102.2007149 48.17761107 105.19775391 55.07080078 C107.34945061 61.52589091 105.90866757 66.56469777 103.26806641 72.62548828 C102.95589172 73.36171417 102.64371704 74.09794006 102.32208252 74.85647583 C101.29377856 77.26716273 100.24846052 79.66979877 99.19775391 82.07080078 C98.84610168 82.87598145 98.49444946 83.68116211 98.13214111 84.51074219 C95.43432531 90.66934006 92.69277959 96.8081387 89.94775391 102.94580078 C88.177137 106.91406696 86.40816525 110.88306587 84.63916016 114.85205078 C83.9663073 116.36078262 83.9663073 116.36078262 83.27986145 117.8999939 C80.14195682 124.93971819 77.0216263 131.98702959 73.91259766 139.03955078 C73.48719696 140.004263 73.06179626 140.96897522 72.62350464 141.96292114 C70.98250934 145.68516723 69.34185471 149.40755899 67.70422363 153.13128662 C65.21771951 158.78484374 62.71600803 164.43131731 60.19775391 170.07080078 C59.70634918 171.17787384 59.70634918 171.17787384 59.20501709 172.30731201 C58.27543543 174.39415064 57.33434343 176.47536548 56.38916016 178.55517578 C55.86136963 179.72532227 55.3335791 180.89546875 54.78979492 182.10107422 C52.07126883 187.17209882 48.7287626 190.22713122 43.19775391 192.07080078 C34.92214907 192.90082669 29.47942402 190.38972163 22.13525391 186.75830078 C20.92790662 186.17756587 19.71970576 185.59860284 18.51074219 185.02124023 C15.85151004 183.74825927 13.19726996 182.46553985 10.54589844 181.17626953 C5.93132077 178.93608865 1.29841623 176.73536934 -3.33740234 174.53955078 C-4.15706482 174.15118546 -4.97672729 173.76282013 -5.82122803 173.36268616 C-7.50398347 172.56539832 -9.18676366 171.7681627 -10.86956787 170.97097778 C-15.16548872 168.93414439 -19.4582934 166.89076478 -23.75146484 164.84814453 C-37.72122374 158.20451908 -51.7012227 151.58389728 -65.71960449 145.043396 C-67.83823871 144.0539922 -69.95554629 143.06178831 -72.07275391 142.06933594 C-94.59041532 131.52935462 -117.30424604 121.08378983 -141.80224609 116.07080078 C-142.70201172 115.88001953 -143.60177734 115.68923828 -144.52880859 115.49267578 C-149.34944956 114.87139986 -154.13383268 114.84591216 -158.98974609 114.82080078 C-159.9675 114.80017578 -160.94525391 114.77955078 -161.95263672 114.75830078 C-172.0221017 114.7050584 -180.86967785 117.11720056 -189.80224609 121.69580078 C-190.48303223 122.04280029 -191.16381836 122.3897998 -191.86523438 122.74731445 C-214.21670857 134.55051685 -227.79565147 157.33559724 -239.90673828 178.60864258 C-250.79777151 197.73486462 -250.79777151 197.73486462 -258.80224609 200.07080078 C-267.67663962 201.16063858 -274.64959193 196.13857571 -281.92724609 191.69580078 C-282.79760498 191.16905762 -283.66796387 190.64231445 -284.56469727 190.09960938 C-291.64862662 185.80166603 -298.6945787 181.4422245 -305.73242188 177.06933594 C-312.23301519 173.03204976 -318.76113269 169.04205372 -325.30224609 165.07080078 C-333.55734788 160.05677043 -341.79443472 155.01541175 -349.99365234 149.91040039 C-354.51135684 147.09843877 -359.04412637 144.31690579 -363.60693359 141.57861328 C-365.03658447 140.71345093 -365.03658447 140.71345093 -366.49511719 139.83081055 C-368.3131188 138.73143977 -370.13608947 137.64022762 -371.96484375 136.55883789 C-377.47865451 133.2081209 -381.84627351 129.98274595 -384.80224609 124.07080078 C-386.36549017 114.46571346 -383.31923193 108.05624908 -378.19775391 100.21435547 C-376.62711404 97.80179109 -375.10070682 95.36400856 -373.57568359 92.92236328 C-370.03327962 87.27336851 -366.42726065 81.66704927 -362.80224609 76.07080078 C-362.27550293 75.25466309 -361.74875977 74.43852539 -361.20605469 73.59765625 C-353.91938012 62.34282804 -346.17022308 51.5479087 -337.80224609 41.07080078 C-337.35010742 40.50006836 -336.89796875 39.92933594 -336.43212891 39.34130859 C-322.86578769 22.37579463 -306.64703317 5.52342348 -288.80224609 -6.92919922 C-288.15610352 -7.39261719 -287.50996094 -7.85603516 -286.84423828 -8.33349609 C-199.98435523 -70.37044682 -94.87001732 -46.57802289 0 0 Z " fill="#000000" transform="translate(384.80224609375,301.92919921875)"/>
<path d="M0 0 C3.09256476 1.70962587 6.10921821 3.53396175 9.125 5.375 C10.43053833 6.16511475 10.43053833 6.16511475 11.76245117 6.97119141 C18.84638053 11.26913475 25.89233261 15.62857628 32.93017578 20.00146484 C39.43076909 24.03875102 45.9588866 28.02874706 52.5 32 C60.75510178 37.01403035 68.99218862 42.05538904 77.19140625 47.16040039 C81.70911075 49.97236201 86.24188028 52.753895 90.8046875 55.4921875 C91.75778809 56.0689624 92.71088867 56.6457373 93.69287109 57.23999023 C95.51087271 58.33936101 97.33384337 59.43057316 99.16259766 60.51196289 C104.67640841 63.86267988 109.04402741 67.08805483 112 73 C113.57205433 82.65922044 110.44983698 89.1094462 105.30078125 96.99853516 C103.90858447 99.14065775 102.56140492 101.30697675 101.21875 103.48046875 C78.83411391 139.56617464 53.33373611 176.39403067 18.66650391 201.7734375 C17.02352638 202.98268436 15.40779252 204.22225397 13.79296875 205.46875 C-12.38857716 225.32371039 -44.56322856 237.54914982 -77 242 C-78.02577148 242.14139404 -78.02577148 242.14139404 -79.07226562 242.28564453 C-87.71861754 243.31928669 -96.42973163 243.2437438 -105.125 243.25 C-105.96903381 243.25067474 -106.81306763 243.25134949 -107.68267822 243.25204468 C-121.64995233 243.23436375 -135.22886426 242.48817453 -149 240 C-150.44656982 239.74259033 -150.44656982 239.74259033 -151.92236328 239.47998047 C-199.997624 230.68831243 -244.25576478 211.73302771 -287.56361389 189.7441864 C-295.8146307 185.56166021 -304.16585116 181.59595812 -312.52880859 177.64355469 C-315.96194035 176.01802065 -319.39175066 174.38567012 -322.82086182 172.75167847 C-326.18383639 171.14964912 -329.54796838 169.55005971 -332.91229248 167.9508667 C-334.56517786 167.16483427 -336.21773813 166.37811775 -337.86993408 165.59063721 C-340.22333393 164.46943375 -342.57800144 163.35096446 -344.93359375 162.234375 C-345.69214661 161.87455536 -346.45069946 161.51473572 -347.23223877 161.14401245 C-350.97784496 159.37953299 -354.73645382 157.6653186 -358.54345703 156.03710938 C-359.63123192 155.57162689 -359.63123192 155.57162689 -360.74098206 155.09674072 C-362.09627962 154.52184631 -363.45459625 153.9539913 -364.81651306 153.3949585 C-370.66696674 150.92311682 -375.41261978 147.95097451 -378 142 C-380.15169671 135.54490988 -378.71091367 130.50610301 -376.0703125 124.4453125 C-375.60205048 123.34097366 -375.60205048 123.34097366 -375.12432861 122.21432495 C-374.09602465 119.80363805 -373.05070661 117.40100201 -372 115 C-371.64834778 114.19481934 -371.29669556 113.38963867 -370.93438721 112.56005859 C-368.2365714 106.40146072 -365.49502568 100.26266208 -362.75 94.125 C-360.97938309 90.15673382 -359.21041134 86.18773491 -357.44140625 82.21875 C-356.99283768 81.21292877 -356.5442691 80.20710754 -356.08210754 79.17080688 C-352.94420291 72.13108259 -349.82387239 65.08377119 -346.71484375 58.03125 C-346.07674271 56.58418167 -346.07674271 56.58418167 -345.42575073 55.10787964 C-343.78475543 51.38563355 -342.1441008 47.66324179 -340.50646973 43.93951416 C-338.0199656 38.28595704 -335.51825412 32.63948347 -333 27 C-332.67239685 26.26195129 -332.3447937 25.52390259 -332.00726318 24.76348877 C-331.07768153 22.67665014 -330.13658953 20.5954353 -329.19140625 18.515625 C-328.66361572 17.34547852 -328.1358252 16.17533203 -327.59204102 14.96972656 C-324.87351492 9.89870196 -321.5310087 6.84366957 -316 5 C-307.68383266 4.15597108 -302.19089154 6.72637417 -294.8125 10.375 C-293.59995496 10.95836076 -292.38654722 11.53993113 -291.17236328 12.11987305 C-288.52855519 13.38545425 -285.88957449 14.66045461 -283.25341797 15.94189453 C-278.81936876 18.0932863 -274.36667859 20.20422634 -269.91015625 22.30859375 C-269.13417587 22.67509537 -268.3581955 23.04159698 -267.55870056 23.41920471 C-265.96861676 24.17014715 -264.37850318 24.92102654 -262.7883606 25.67184448 C-258.73174487 27.58917135 -254.67857635 29.51375811 -250.625 31.4375 C-238.08485178 37.38622413 -225.53118317 43.30601269 -212.9644928 49.19845581 C-209.07551038 51.0227058 -205.1908015 52.85564675 -201.30950928 54.69619751 C-148.3725008 80.8303675 -148.3725008 80.8303675 -91.12890625 79.3203125 C-63.14498782 67.51186752 -47.39131472 43.9239489 -32.89550781 18.4621582 C-17.48796398 -8.59570659 -17.48796398 -8.59570659 0 0 Z " fill="#000000" transform="translate(400,13)"/>
</svg>
