<?xml version="1.0" encoding="UTF-8"?>
<svg version="1.1" xmlns="http://www.w3.org/2000/svg" width="256" height="256">
<path d="M0 0 C1.88773888 -0.00430527 1.88773888 -0.00430527 3.81361389 -0.00869751 C6.46907839 -0.01073461 9.12370816 -0.0067523 11.77905273 0.00732422 C15.16261811 0.02439805 18.54546845 0.0145754 21.92900753 -0.00339317 C25.18186299 -0.01691632 28.43463516 -0.007413 31.6875 0 C32.89292953 -0.00607269 34.09835907 -0.01214539 35.34031677 -0.0184021 C49.29073224 0.09752164 49.29073224 0.09752164 54.42442322 4.77944946 C58.61042874 9.56765358 60.15778907 13.14641204 60.18481445 19.44873047 C60.19434647 20.67034882 60.20387848 21.89196716 60.21369934 23.15060425 C60.21278793 24.4673111 60.21187653 25.78401794 60.2109375 27.140625 C60.21482694 28.51059092 60.21916212 29.88055563 60.22392273 31.2505188 C60.23137765 34.12034007 60.23109939 36.99003831 60.22583008 39.85986328 C60.22004199 43.52727521 60.23695336 47.19418102 60.26017475 50.86150932 C60.27494944 53.69091712 60.27577865 56.52020416 60.27266502 59.34964371 C60.27342436 61.355911 60.28726999 63.36215963 60.30134583 65.36837769 C60.29511703 66.59630035 60.28888824 67.82422302 60.2824707 69.08935547 C60.28310013 70.16539032 60.28372955 71.24142517 60.28437805 72.35006714 C59.64541064 77.55502666 57.45328964 81.42145836 53.41015625 84.7109375 C52.5284375 85.44763672 52.5284375 85.44763672 51.62890625 86.19921875 C48.20359928 88.58914884 45.0482149 88.54274309 41.00512695 88.59130859 C39.78988846 88.60737152 38.57464996 88.62343445 37.32258606 88.63998413 C31.75973739 88.68448368 26.19701768 88.72594312 20.6340332 88.74853516 C17.701748 88.76185007 14.77016274 88.78965857 11.83813477 88.83056641 C8.28787024 88.88009143 4.7382382 88.9046803 1.18764305 88.91176224 C-0.81089967 88.92167335 -2.80927485 88.95587043 -4.80754089 88.99057007 C-12.12636725 88.97362536 -17.55877134 88.50913184 -23.08984375 83.3984375 C-27.26381214 78.1542208 -28.20617523 74.29502556 -28.25097656 67.73120117 C-28.26058411 66.59289352 -28.27019165 65.45458588 -28.28009033 64.28178406 C-28.28434021 63.05570938 -28.28859009 61.8296347 -28.29296875 60.56640625 C-28.29866882 59.30129715 -28.3043689 58.03618805 -28.3102417 56.73274231 C-28.31968841 54.05543422 -28.32658699 51.37823812 -28.33007812 48.70092773 C-28.33555522 45.28474051 -28.35957463 41.86895337 -28.38805008 38.45289135 C-28.41125211 35.17826034 -28.41313108 31.90360793 -28.41796875 28.62890625 C-28.43031555 27.40890427 -28.44266235 26.18890228 -28.4553833 24.93193054 C-28.43486347 17.08416333 -27.92861247 11.86804371 -22.83984375 5.6484375 C-15.67099036 -0.216988 -8.95103179 -0.04501776 0 0 Z M-15.08984375 14.3984375 C-17.18133891 17.4086238 -17.34224354 19.93351781 -17.34863281 23.54663086 C-17.35493713 24.57126938 -17.36124146 25.5959079 -17.36773682 26.65159607 C-17.36368835 27.75270218 -17.35963989 28.85380829 -17.35546875 29.98828125 C-17.3573822 31.12495743 -17.35929565 32.26163361 -17.36126709 33.43275452 C-17.36262772 35.83594992 -17.3589398 38.23915271 -17.35058594 40.64233398 C-17.33989486 44.31836499 -17.35048055 47.99390618 -17.36328125 51.66992188 C-17.36195944 54.00520941 -17.3593966 56.34049664 -17.35546875 58.67578125 C-17.35951721 59.77486313 -17.36356567 60.87394501 -17.36773682 62.0063324 C-17.3614325 63.03412308 -17.35512817 64.06191376 -17.34863281 65.12084961 C-17.34704163 66.02145615 -17.34545044 66.92206268 -17.34381104 67.84996033 C-17.05689652 70.72905194 -16.40435415 72.82272386 -15.08984375 75.3984375 C-11.74299288 77.62967141 -10.60229293 77.66203489 -6.68798828 77.70483398 C-5.58319122 77.72082138 -4.47839417 77.73680878 -3.34011841 77.75328064 C-1.54947464 77.76132469 -1.54947464 77.76132469 0.27734375 77.76953125 C1.50421906 77.77855972 2.73109436 77.7875882 3.99514771 77.79689026 C6.59260613 77.81140944 9.19010127 77.82028362 11.78759766 77.82397461 C15.76267086 77.83587021 19.73619208 77.88504342 23.7109375 77.93554688 C26.23306533 77.94501079 28.75520271 77.95224597 31.27734375 77.95703125 C33.06191483 77.98632973 33.06191483 77.98632973 34.88253784 78.01622009 C39.62249473 77.99029251 42.94712699 77.91622939 47.16040039 75.65087891 C49.92798073 70.50650814 49.60333215 65.55275604 49.5390625 59.80078125 C49.54147446 58.57436417 49.54388641 57.34794708 49.54637146 56.08436584 C49.5453929 53.49460615 49.53199747 50.90482556 49.50708008 48.31518555 C49.47274998 44.34677279 49.48642898 40.38058345 49.50585938 36.41210938 C49.49896177 33.89582384 49.48929017 31.37954405 49.4765625 28.86328125 C49.48152237 27.67468002 49.48648224 26.4860788 49.49159241 25.26145935 C49.47575607 24.15673782 49.45991974 23.0520163 49.44360352 21.91381836 C49.43740494 20.94294785 49.43120636 19.97207733 49.42481995 18.9717865 C48.76615934 15.6784444 47.47017819 14.50087179 44.91015625 12.3984375 C42.41102034 11.14886954 40.6937545 11.25801446 37.8972168 11.23730469 C36.3300013 11.22289337 36.3300013 11.22289337 34.73112488 11.20819092 C33.59782242 11.20394104 32.46451996 11.19969116 31.296875 11.1953125 C30.13517288 11.18961243 28.97347076 11.18391235 27.77656555 11.17803955 C25.31435052 11.16857954 22.85212277 11.16205161 20.38989258 11.15820312 C16.62363552 11.1485044 12.8579256 11.11749242 9.09179688 11.0859375 C6.70182616 11.07940695 4.31185154 11.07415668 1.921875 11.0703125 C0.79464523 11.0579657 -0.33258453 11.0456189 -1.49397278 11.03289795 C-3.075373 11.0373996 -3.075373 11.0373996 -4.6887207 11.04199219 C-5.61312454 11.03834656 -6.53752838 11.03470093 -7.48994446 11.03094482 C-10.69111386 11.48342632 -12.51674501 12.45494629 -15.08984375 14.3984375 Z " fill="#E0E0E0" transform="translate(163.08984375,134.6015625)"/>
<path d="M0 0 C1.22161835 -0.00953201 2.44323669 -0.01906403 3.70187378 -0.02888489 C5.67693405 -0.02751778 5.67693405 -0.02751778 7.69189453 -0.02612305 C9.06186045 -0.03001248 10.43182516 -0.03434767 11.80178833 -0.03910828 C14.6716096 -0.0465632 17.54130784 -0.04628494 20.41113281 -0.04101562 C24.07854474 -0.03522754 27.74545055 -0.05213891 31.41277885 -0.0753603 C34.24218666 -0.09013499 37.07147369 -0.0909642 39.90091324 -0.08785057 C41.90718053 -0.08860991 43.91342916 -0.10245554 45.91964722 -0.11653137 C47.76153122 -0.10718819 47.76153122 -0.10718819 49.640625 -0.09765625 C50.71665985 -0.09828568 51.7926947 -0.0989151 52.90133667 -0.0995636 C58.10629619 0.53940382 61.97272789 2.73152481 65.26220703 6.7746582 C65.99890625 7.65637695 65.99890625 7.65637695 66.75048828 8.5559082 C69.14041837 11.98121517 69.09401262 15.13659956 69.14257812 19.1796875 C69.15864105 20.39492599 69.17470398 21.61016449 69.19125366 22.86222839 C69.23575322 28.42507706 69.27721265 33.98779678 69.29980469 39.55078125 C69.3131196 42.48306646 69.34092811 45.41465172 69.38183594 48.34667969 C69.43136097 51.89694422 69.45594983 55.44657625 69.46303177 58.9971714 C69.47294288 60.99571412 69.50713996 62.9940893 69.5418396 64.99235535 C69.52489489 72.3111817 69.06040137 77.74358579 63.94970703 83.2746582 C58.70549033 87.4486266 54.84629509 88.39098969 48.2824707 88.43579102 C47.14416306 88.44539856 46.00585541 88.4550061 44.83305359 88.46490479 C43.60697891 88.46915466 42.38090424 88.47340454 41.11767578 88.4777832 C39.85256668 88.48348328 38.58745758 88.48918335 37.28401184 88.49505615 C34.60670375 88.50450287 31.92950766 88.51140144 29.25219727 88.51489258 C25.83601004 88.52036968 22.4202229 88.54438909 19.00416088 88.57286453 C15.72952987 88.59606657 12.45487746 88.59794553 9.18017578 88.6027832 C7.35017281 88.62130341 7.35017281 88.62130341 5.48320007 88.64019775 C-2.36456714 88.61967793 -7.58068676 88.11342692 -13.80029297 83.0246582 C-19.7048769 75.8079445 -19.50540872 68.97861295 -19.48388672 59.96606445 C-19.48912857 58.68537582 -19.49437042 57.40468719 -19.49977112 56.08518982 C-19.50867074 53.38286434 -19.50631561 50.68083488 -19.49633789 47.97851562 C-19.48485303 44.53427629 -19.50506647 41.09106302 -19.53425503 37.64695835 C-19.55712964 34.3366081 -19.55014551 31.0264916 -19.54638672 27.71606445 C-19.5576207 26.48876114 -19.56885468 25.26145782 -19.58042908 23.9969635 C-19.52331772 16.94688334 -18.88822031 12.24912728 -15.05029297 6.2746582 C-10.28796928 1.7504507 -6.54562771 0.02806873 0 0 Z M-7.05029297 15.2746582 C-8.0382818 18.23862468 -8.18800722 20.21555413 -8.21142578 23.30932617 C-8.22103333 24.33404022 -8.23064087 25.35875427 -8.24053955 26.41452026 C-8.24478943 27.52078766 -8.24903931 28.62705505 -8.25341797 29.7668457 C-8.25911804 30.90493683 -8.26481812 32.04302795 -8.27069092 33.21560669 C-8.28014176 35.62476674 -8.28667523 38.03393973 -8.29052734 40.44311523 C-8.30023611 44.12807757 -8.33126078 47.81248297 -8.36279297 51.49731445 C-8.36932274 53.83715489 -8.37457331 56.17699932 -8.37841797 58.5168457 C-8.39076477 59.61906464 -8.40311157 60.72128357 -8.41583252 61.85690308 C-8.41283142 62.88792145 -8.40983032 63.91893982 -8.40673828 64.98120117 C-8.41038391 65.88482391 -8.41402954 66.78844666 -8.41778564 67.7194519 C-7.96128186 70.89355962 -6.97436605 72.71977436 -5.05029297 75.2746582 C-2.04010667 77.36615336 0.48478734 77.52705799 4.09790039 77.53344727 C5.63485817 77.54290375 5.63485817 77.54290375 7.2028656 77.55255127 C8.30397171 77.54850281 9.40507782 77.54445435 10.53955078 77.5402832 C11.67622696 77.54219666 12.81290314 77.54411011 13.98402405 77.54608154 C16.38721946 77.54744217 18.79042224 77.54375425 21.19360352 77.53540039 C24.86963452 77.52470931 28.54517572 77.53529501 32.22119141 77.5480957 C34.55647894 77.54677389 36.89176617 77.54421106 39.22705078 77.5402832 C40.32613266 77.54433167 41.42521454 77.54838013 42.55760193 77.55255127 C44.09928795 77.54309479 44.09928795 77.54309479 45.67211914 77.53344727 C46.57272568 77.53185608 47.47333221 77.53026489 48.40122986 77.52862549 C51.28032147 77.24171098 53.37399339 76.5891686 55.94970703 75.2746582 C58.18094094 71.92780734 58.21330442 70.78710738 58.25610352 66.87280273 C58.27209091 65.76800568 58.28807831 64.66320862 58.30455017 63.52493286 C58.31259422 61.73428909 58.31259422 61.73428909 58.32080078 59.9074707 C58.32982925 58.6805954 58.33885773 57.45372009 58.34815979 56.18966675 C58.36267897 53.59220832 58.37155315 50.99471318 58.37524414 48.3972168 C58.38713974 44.42214359 58.43631295 40.44862238 58.48681641 36.47387695 C58.49628032 33.95174913 58.5035155 31.42961175 58.50830078 28.9074707 C58.5278331 27.71775665 58.54736542 26.5280426 58.56748962 25.30227661 C58.54156204 20.56231973 58.46749892 17.23768747 56.20214844 13.02441406 C51.05777768 10.25683373 46.10402557 10.58148231 40.35205078 10.64575195 C39.1256337 10.64334 37.89921661 10.64092804 36.63563538 10.63844299 C34.04587568 10.63942156 31.45609509 10.65281699 28.86645508 10.67773438 C24.89804232 10.71206447 20.93185298 10.69838547 16.96337891 10.67895508 C14.44709337 10.68585269 11.93081358 10.69552429 9.41455078 10.70825195 C8.22594955 10.70329208 7.03734833 10.69833221 5.81272888 10.69322205 C4.70800735 10.70905838 3.60328583 10.72489471 2.46508789 10.74121094 C1.49421738 10.74740952 0.52334686 10.75360809 -0.47694397 10.75999451 C-3.7915582 11.42290949 -4.967348 12.66258153 -7.05029297 15.2746582 Z " fill="#E1E1E1" transform="translate(154.05029296875,32.725341796875)"/>
<path d="M0 0 C1.13830765 -0.00960754 2.2766153 -0.01921509 3.44941711 -0.02911377 C5.28852913 -0.03548859 5.28852913 -0.03548859 7.16479492 -0.04199219 C9.06245857 -0.0505423 9.06245857 -0.0505423 10.99845886 -0.05926514 C13.67576695 -0.06871185 16.35296305 -0.07561043 19.03027344 -0.07910156 C22.44646066 -0.08457866 25.8622478 -0.10859807 29.27830982 -0.13707352 C32.55294084 -0.16027555 35.82759324 -0.16215451 39.10229492 -0.16699219 C40.32229691 -0.17933899 41.54229889 -0.19168579 42.79927063 -0.20440674 C50.64703784 -0.18388691 55.86315746 0.32236409 62.08276367 5.41113281 C67.94818918 12.57998621 67.77621893 19.29994477 67.73120117 28.25097656 C67.73407135 29.50946915 67.73694153 30.76796173 67.73989868 32.06459045 C67.74193578 34.72005495 67.73795347 37.37468472 67.72387695 40.0300293 C67.70680312 43.41359467 67.71662577 46.79644501 67.73459435 50.17998409 C67.74811749 53.43283955 67.73861418 56.68561172 67.73120117 59.93847656 C67.73727386 61.1439061 67.74334656 62.34933563 67.74960327 63.59129333 C67.63367954 77.5417088 67.63367954 77.5417088 62.95175171 82.67539978 C58.16354759 86.8614053 54.58478913 88.40876564 48.2824707 88.43579102 C47.06085236 88.44532303 45.83923401 88.45485504 44.58059692 88.4646759 C43.26389008 88.4637645 41.94718323 88.46285309 40.59057617 88.46191406 C39.22061026 88.4658035 37.85064554 88.47013868 36.48068237 88.47489929 C33.6108611 88.48235421 30.74116287 88.48207595 27.87133789 88.47680664 C24.20392596 88.47101856 20.53702015 88.48792992 16.86969185 88.51115131 C14.04028405 88.52592601 11.21099701 88.52675522 8.38155746 88.52364159 C6.37529017 88.52440092 4.36904155 88.53824655 2.36282349 88.55232239 C1.13490082 88.5460936 -0.09302185 88.53986481 -1.3581543 88.53344727 C-2.43418915 88.53407669 -3.510224 88.53470612 -4.61886597 88.53535461 C-9.82382549 87.8963872 -13.69025718 85.70426621 -16.97973633 81.66113281 C-17.47086914 81.07332031 -17.96200195 80.48550781 -18.46801758 79.87988281 C-20.85794767 76.45457585 -20.81154192 73.29919146 -20.86010742 69.25610352 C-20.87617035 68.04086502 -20.89223328 66.82562653 -20.90878296 65.57356262 C-20.95328251 60.01071396 -20.99474195 54.44799424 -21.01733398 48.88500977 C-21.0306489 45.95272456 -21.0584574 43.0211393 -21.09936523 40.08911133 C-21.14889026 36.5388468 -21.17347912 32.98921477 -21.18056107 29.43861961 C-21.19047217 27.44007689 -21.22466926 25.44170171 -21.2593689 23.44343567 C-21.24242419 16.12460932 -20.77793067 10.69220522 -15.66723633 5.16113281 C-10.42301963 0.98716442 -6.56382439 0.04480133 0 0 Z M-7.66723633 13.16113281 C-9.89847024 16.50798368 -9.93083371 17.64868363 -9.97363281 21.56298828 C-9.98962021 22.66778534 -10.0056076 23.7725824 -10.02207947 24.91085815 C-10.02744217 26.10462067 -10.03280487 27.29838318 -10.03833008 28.52832031 C-10.04735855 29.75519562 -10.05638702 30.98207092 -10.06568909 32.24612427 C-10.08020827 34.8435827 -10.08908244 37.44107783 -10.09277344 40.03857422 C-10.10466904 44.01364743 -10.15384224 47.98716864 -10.2043457 51.96191406 C-10.21380962 54.48404189 -10.2210448 57.00617927 -10.22583008 59.52832031 C-10.2453624 60.71803436 -10.26489471 61.90774841 -10.28501892 63.1335144 C-10.25909134 67.87347129 -10.18502822 71.19810355 -7.91967773 75.41137695 C-2.77530697 78.17895729 2.17844513 77.85430871 7.93041992 77.79003906 C9.77004555 77.793657 9.77004555 77.793657 11.64683533 77.79734802 C14.23659503 77.79636946 16.82637562 77.78297403 19.41601562 77.75805664 C23.38442838 77.72372655 27.35061772 77.73740554 31.3190918 77.75683594 C33.83537733 77.74993833 36.35165712 77.74026673 38.86791992 77.72753906 C40.05652115 77.73249893 41.24512238 77.7374588 42.46974182 77.74256897 C44.12682411 77.71881447 44.12682411 77.71881447 45.81738281 77.69458008 C46.78825333 77.6883815 47.75912384 77.68218292 48.75941467 77.67579651 C52.0740289 77.01288152 53.2498187 75.77320949 55.33276367 73.16113281 C56.3207525 70.19716633 56.47047792 68.22023689 56.49389648 65.12646484 C56.50350403 64.10175079 56.51311157 63.07703674 56.52301025 62.02127075 C56.52726013 60.91500336 56.53151001 59.80873596 56.53588867 58.66894531 C56.54158875 57.53085419 56.54728882 56.39276306 56.55316162 55.22018433 C56.56261246 52.81102427 56.56914593 50.40185129 56.57299805 47.99267578 C56.58270681 44.30771344 56.61373149 40.62330804 56.64526367 36.93847656 C56.65179344 34.59863613 56.65704401 32.2587917 56.66088867 29.91894531 C56.67940887 28.26561691 56.67940887 28.26561691 56.69830322 26.57888794 C56.69530212 25.54786957 56.69230103 24.5168512 56.68920898 23.45458984 C56.69285461 22.5509671 56.69650024 21.64734436 56.70025635 20.71633911 C56.24375257 17.54223139 55.25683675 15.71601665 53.33276367 13.16113281 C50.29568997 11.04331784 47.72499616 10.90864925 44.0769043 10.90234375 C43.02901733 10.89603943 41.98113037 10.88973511 40.90148926 10.88323975 C39.77537231 10.88728821 38.64925537 10.89133667 37.48901367 10.89550781 C36.32776978 10.89359436 35.16652588 10.89168091 33.97009277 10.88970947 C31.51562279 10.88834886 29.06114559 10.89203667 26.60668945 10.90039062 C22.84724786 10.91109158 19.08828414 10.90049085 15.32885742 10.88769531 C12.94474178 10.88901693 10.56062644 10.89157936 8.17651367 10.89550781 C7.05039673 10.89145935 5.92427979 10.88741089 4.76403809 10.88323975 C3.19220764 10.89269623 3.19220764 10.89269623 1.58862305 10.90234375 C0.66803101 10.90393494 -0.25256104 10.90552612 -1.2010498 10.90716553 C-3.86104146 11.18109082 -5.43405495 11.70509612 -7.66723633 13.16113281 Z " fill="#E1E1E1" transform="translate(53.667236328125,134.8388671875)"/>
<path d="M0 0 C1.21523849 -0.01606293 2.43047699 -0.03212585 3.68254089 -0.04867554 C9.24538956 -0.09317509 14.80810928 -0.13463453 20.37109375 -0.15722656 C23.30337896 -0.17054148 26.23496422 -0.19834998 29.16699219 -0.23925781 C32.71725672 -0.28878284 36.26688875 -0.3133717 39.8174839 -0.32045364 C41.81602662 -0.33036475 43.8144018 -0.36456184 45.81266785 -0.39926147 C53.1314942 -0.38231677 58.56389829 0.08217676 64.0949707 5.19287109 C68.2689391 10.43708779 69.21130219 14.29628304 69.25610352 20.86010742 C69.26571106 21.99841507 69.2753186 23.13672272 69.28521729 24.30952454 C69.28946716 25.53559921 69.29371704 26.76167389 69.2980957 28.02490234 C69.30379578 29.29001144 69.30949585 30.55512054 69.31536865 31.85856628 C69.32481537 34.53587437 69.33171394 37.21307047 69.33520508 39.89038086 C69.34068218 43.30656809 69.36470159 46.72235523 69.39317703 50.13841724 C69.41637907 53.41304826 69.41825803 56.68770067 69.4230957 59.96240234 C69.4354425 61.18240433 69.44778931 62.40240631 69.46051025 63.65937805 C69.43999043 71.50714527 68.93373942 76.72326488 63.8449707 82.94287109 C56.67611731 88.8082966 49.95615874 88.63632636 41.00512695 88.59130859 C39.74663437 88.59417877 38.48814178 88.59704895 37.19151306 88.6000061 C34.53604857 88.6020432 31.8814188 88.59806089 29.22607422 88.58398438 C25.84250884 88.56691055 22.45965851 88.57673319 19.07611942 88.59470177 C15.82326396 88.60822491 12.5704918 88.5987216 9.31762695 88.59130859 C8.11219742 88.59738129 6.90676788 88.60345398 5.66481018 88.60971069 C-8.28560529 88.49378696 -8.28560529 88.49378696 -13.41929626 83.81185913 C-17.60530178 79.02365501 -19.15266212 75.44489655 -19.1796875 69.14257812 C-19.18921951 67.92095978 -19.19875153 66.69934143 -19.20857239 65.44070435 C-19.20766098 64.1239975 -19.20674957 62.80729065 -19.20581055 61.45068359 C-19.20969998 60.08071768 -19.21403517 58.71075296 -19.21879578 57.34078979 C-19.2262507 54.47096853 -19.22597244 51.60127029 -19.22070312 48.73144531 C-19.21491504 45.06403339 -19.23182641 41.39712757 -19.2550478 37.72979927 C-19.26982249 34.90039147 -19.2706517 32.07110443 -19.26753807 29.24166489 C-19.26829741 27.23539759 -19.28214304 25.22914897 -19.29621887 23.22293091 C-19.28999008 21.99500824 -19.28376129 20.76708557 -19.27734375 19.50195312 C-19.27797318 18.42591827 -19.2786026 17.34988342 -19.2792511 16.24124146 C-18.64028368 11.03628193 -16.44816269 7.16985024 -12.4050293 3.88037109 C-11.8172168 3.38923828 -11.2294043 2.89810547 -10.6237793 2.39208984 C-7.19847233 0.00215976 -4.04308794 0.04856551 0 0 Z M-6.15527344 12.94042969 C-8.92285377 18.08480045 -8.59820519 23.03855255 -8.53393555 28.79052734 C-8.5363475 30.01694443 -8.53875946 31.24336151 -8.54124451 32.50694275 C-8.54026594 35.09670245 -8.52687051 37.68648304 -8.50195312 40.27612305 C-8.46762303 44.24453581 -8.48130203 48.21072515 -8.50073242 52.17919922 C-8.49383481 54.69548476 -8.48416321 57.21176454 -8.47143555 59.72802734 C-8.47639542 60.91662857 -8.48135529 62.1052298 -8.48646545 63.32984924 C-8.47062912 64.43457077 -8.45479279 65.5392923 -8.43847656 66.67749023 C-8.43227798 67.64836075 -8.42607941 68.61923126 -8.41969299 69.61952209 C-7.75677801 72.93413632 -6.51710597 74.10992612 -3.9050293 76.19287109 C-0.94106282 77.18085992 1.03586663 77.33058534 4.12963867 77.35400391 C5.15435272 77.36361145 6.17906677 77.37321899 7.23483276 77.38311768 C8.34110016 77.38736755 9.44736755 77.39161743 10.5871582 77.39599609 C11.72524933 77.40169617 12.86334045 77.40739624 14.03591919 77.41326904 C16.44507924 77.42271989 18.85425223 77.42925336 21.26342773 77.43310547 C24.94839007 77.44281424 28.63279547 77.47383891 32.31762695 77.50537109 C34.65746739 77.51190086 36.99731182 77.51715144 39.3371582 77.52099609 C40.43937714 77.5333429 41.54159607 77.5456897 42.67721558 77.55841064 C43.70823395 77.55540955 44.73925232 77.55240845 45.80151367 77.54931641 C46.70513641 77.55296204 47.60875916 77.55660767 48.5397644 77.56036377 C51.71387212 77.10385999 53.54008686 76.11694417 56.0949707 74.19287109 C58.18646586 71.18268479 58.34737049 68.65779078 58.35375977 65.04467773 C58.36321625 63.50771996 58.36321625 63.50771996 58.37286377 61.93971252 C58.36881531 60.83860641 58.36476685 59.73750031 58.3605957 58.60302734 C58.36250916 57.46635117 58.36442261 56.32967499 58.36639404 55.15855408 C58.36775467 52.75535867 58.36406675 50.35215588 58.35571289 47.94897461 C58.34502181 44.2729436 58.35560751 40.59740241 58.3684082 36.92138672 C58.36708639 34.58609918 58.36452356 32.25081195 58.3605957 29.91552734 C58.36464417 28.81644547 58.36869263 27.71736359 58.37286377 26.5849762 C58.36655945 25.55718552 58.36025513 24.52939484 58.35375977 23.47045898 C58.35216858 22.56985245 58.35057739 21.66924591 58.34893799 20.74134827 C58.06202348 17.86225665 57.4094811 15.76858474 56.0949707 13.19287109 C52.74811984 10.96163718 51.60741988 10.92927371 47.69311523 10.88647461 C46.58831818 10.87048721 45.48352112 10.85449982 44.34524536 10.83802795 C43.15148285 10.83266525 41.95772034 10.82730255 40.7277832 10.82177734 C39.5009079 10.81274887 38.27403259 10.8037204 37.00997925 10.79441833 C34.41252082 10.77989915 31.81502568 10.77102498 29.2175293 10.76733398 C25.24245609 10.75543838 21.26893488 10.70626518 17.29418945 10.65576172 C14.77206163 10.64629781 12.24992425 10.63906262 9.7277832 10.63427734 C8.53806915 10.61474503 7.3483551 10.59521271 6.12258911 10.5750885 C1.38263223 10.60101608 -1.94200003 10.6750792 -6.15527344 12.94042969 Z " fill="#E0E0E0" transform="translate(51.905029296875,32.80712890625)"/>
<path d="M0 0 C-1.49097658 3.7952131 -3.75700849 5.61042731 -7 8 C-4.18918919 0 -4.18918919 0 0 0 Z " fill="#B8B8B8" transform="translate(42,138)"/>
<path d="M0 0 C0.66 0.33 1.32 0.66 2 1 C1.0479279 2.00596297 0.08812654 3.00461563 -0.875 4 C-1.40867188 4.556875 -1.94234375 5.11375 -2.4921875 5.6875 C-4 7 -4 7 -6 7 C-4.60667426 3.63279613 -3.0210714 2.0140476 0 0 Z " fill="#B8B8B8" transform="translate(144,35)"/>
</svg>
