<?xml version="1.0" encoding="UTF-8"?>
<svg version="1.1" xmlns="http://www.w3.org/2000/svg" width="500" height="500">
<path d="M0 0 C2.76614821 -0.12001368 5.53013329 -0.2001739 8.29807758 -0.26438951 C9.10170994 -0.30054263 9.9053423 -0.33669574 10.73332715 -0.3739444 C14.82576692 -0.41808234 17.28539425 -0.069726 20.52421665 2.54416418 C23.84956781 5.97972211 24.16535567 7.39546845 24.1745472 12.02976656 C24.17900504 13.06871704 24.18346288 14.10766753 24.18805581 15.17810136 C24.18777927 16.90350083 24.18777927 16.90350083 24.18749714 18.66375685 C24.19117383 19.87883647 24.19485052 21.0939161 24.19863862 22.34581631 C24.20777775 25.72932714 24.21237783 29.1127894 24.21502793 32.49630797 C24.21892647 36.14126363 24.22850507 39.78620519 24.23724079 43.43115187 C24.25701736 52.23871981 24.26707266 61.04628892 24.27596858 69.85387352 C24.2803493 73.99890342 24.28571664 78.14393205 24.29095745 82.28896093 C24.30797048 96.06330077 24.32246563 109.83763981 24.32970619 123.61198854 C24.33161616 127.18773159 24.33353649 130.76347464 24.33549213 134.33921766 C24.33597587 135.22797831 24.33645961 136.11673896 24.33695801 137.03243174 C24.34526196 151.43638744 24.37060468 165.84026019 24.40307281 180.24417964 C24.43611672 195.02370097 24.45415251 209.8031801 24.45735043 224.58273858 C24.45951795 232.88446344 24.46830182 241.18606733 24.49381161 249.48775625 C24.51548217 256.55647058 24.52358706 263.62503454 24.51384483 270.69377831 C24.50928954 274.30152891 24.51125701 277.90896905 24.53060627 281.51667738 C24.55138956 285.42545312 24.54128664 289.3337975 24.52807331 293.24261427 C24.54452718 294.95797549 24.54452718 294.95797549 24.56131345 296.70799047 C24.49874486 304.34066403 24.49874486 304.34066403 22.25984192 308.26247644 C18.8328768 311.16705317 16.01428838 312.35638371 11.54673576 312.71362829 C10.65885288 312.78818987 9.77096999 312.86275144 8.85618156 312.93957245 C7.89404292 313.01130248 6.93190429 313.08303251 5.94060993 313.15693617 C4.92277835 313.23878641 3.90494677 313.32063664 2.8562718 313.40496719 C-9.2093666 314.35721553 -21.28661345 315.14886127 -33.3642149 315.93125868 C-35.92302472 316.09884667 -38.48182154 316.26663317 -41.0406065 316.43460035 C-47.91843864 316.88533723 -54.79647803 317.33282007 -61.6745913 317.77924347 C-65.98612151 318.05909715 -70.29760053 318.33973397 -74.60907078 318.62050962 C-86.59981849 319.40125288 -98.59062216 320.18112316 -110.58165359 320.95749807 C-111.34429321 321.00687722 -112.10693282 321.05625637 -112.89268273 321.10713186 C-114.43791671 321.20717958 -115.9831507 321.30722718 -117.52838469 321.40727468 C-118.29518034 321.4569228 -119.06197599 321.50657092 -119.85200787 321.55772352 C-120.61976219 321.60743297 -121.38751651 321.65714242 -122.17853611 321.70835821 C-134.62678782 322.51451239 -147.07460609 323.32716467 -159.52225138 324.14262398 C-172.37098022 324.98426678 -185.22005127 325.82051221 -198.0694775 326.65144145 C-205.25657738 327.11632796 -212.4435187 327.58340536 -219.63008595 328.05646086 C-226.38913502 328.50134508 -233.14862791 328.9387747 -239.90847301 329.37142324 C-242.3714629 329.5302037 -244.83430178 329.69134945 -247.29695988 329.85519552 C-254.84835781 330.3567416 -262.39915884 330.80405242 -269.95967388 331.14366102 C-271.00370585 331.19106916 -272.04773782 331.2384773 -273.12340713 331.28732204 C-276.1580219 331.40842838 -279.19056031 331.48811149 -282.22687054 331.55171156 C-283.57426983 331.60594123 -283.57426983 331.60594123 -284.94888932 331.66126645 C-289.23072637 331.70250143 -292.07613407 331.51623356 -295.50547409 328.80565786 C-298.79101254 325.24193294 -299.08457009 322.83358035 -299.09389496 318.16853571 C-299.0983528 317.13517767 -299.10281065 316.10181962 -299.10740358 315.0371477 C-299.10721921 313.89825825 -299.10703485 312.7593688 -299.1068449 311.58596754 C-299.11235993 309.77537547 -299.11235993 309.77537547 -299.11798638 307.92820579 C-299.12711555 304.57168797 -299.13172341 301.21521907 -299.13437569 297.85869348 C-299.1382782 294.24100301 -299.14785649 290.62332671 -299.15658855 287.00564528 C-299.17635303 278.26671426 -299.18641852 269.52778208 -299.19531634 260.7888343 C-299.19969871 256.67481757 -299.2050656 252.56080212 -299.21030521 248.4467864 C-299.22731642 234.7736327 -299.24181151 221.1004798 -299.24905396 207.42731714 C-299.25096388 203.87890767 -299.25288421 200.3304982 -299.2548399 196.78208876 C-299.25532364 195.90013715 -299.25580738 195.01818555 -299.25630578 194.10950813 C-299.26460957 179.81622222 -299.28995286 165.5230199 -299.32242057 151.2297705 C-299.35547275 136.55982388 -299.37350099 121.88991978 -299.3766982 107.21993572 C-299.37886485 98.98135066 -299.38763635 90.74288755 -299.41315937 82.50433874 C-299.43484113 75.4894757 -299.44292924 68.47476424 -299.43319259 61.45987149 C-299.42864068 57.88034281 -299.43058534 54.30112704 -299.44995403 50.72164106 C-299.47076721 46.84173181 -299.46062362 42.96225612 -299.44742107 39.08230543 C-299.45839032 37.95010814 -299.46935957 36.81791086 -299.48066121 35.65140456 C-299.43031373 29.54238324 -299.21083649 25.69997606 -294.95967388 21.14366102 C-292.03789741 19.38073941 -289.63961175 18.83087884 -286.25566769 18.57369375 C-285.32382145 18.49913218 -284.39197521 18.42457061 -283.4318912 18.34774959 C-282.42304252 18.27601956 -281.41419384 18.20428954 -280.37477398 18.13038588 C-278.77832527 18.00761052 -278.77832527 18.00761052 -277.14962506 17.88235486 C-273.75367108 17.62524863 -270.3569776 17.38222858 -266.95967388 17.14366102 C-265.3726178 17.03123855 -265.3726178 17.03123855 -263.75349998 16.91654491 C-255.94346334 16.36868408 -248.13102655 15.86029836 -240.31807232 15.35606337 C-237.74601942 15.18845251 -235.17397793 15.02066667 -232.60194683 14.85272169 C-225.69331113 14.40208087 -218.78446688 13.95469947 -211.8755703 13.50807858 C-207.54546166 13.22815135 -203.21539746 12.94754075 -198.88534069 12.66681242 C-186.84392354 11.8862557 -174.80245596 11.10648773 -162.76078701 10.32982397 C-161.99521178 10.28044482 -161.22963655 10.23106567 -160.44086207 10.18019018 C-159.67373939 10.13071227 -158.90661671 10.08123435 -158.11624789 10.03025711 C-156.56242887 9.93003879 -155.00860993 9.82981926 -153.45479107 9.72959852 C-152.68408701 9.67988907 -151.91338296 9.63017963 -151.11932424 9.57896383 C-138.6148557 8.77228521 -126.11077526 7.95974828 -113.60684988 7.14469807 C-100.70156413 6.30356933 -87.7959697 5.46731833 -74.89005589 4.63588059 C-67.67064041 4.17067393 -60.4513673 3.70347167 -53.23243237 3.23086119 C-46.44625128 2.78660851 -39.65966421 2.34907896 -32.87276745 1.9158988 C-30.39766446 1.75688556 -27.92269841 1.59572232 -25.4478941 1.43212652 C-16.96816827 0.87244948 -8.48795588 0.41200094 0 0 Z M-64.02778912 67.88828993 C-66.51974662 68.01853416 -69.01208508 68.13781943 -71.50459576 68.25694227 C-73.11595918 68.34090301 -74.72728875 68.42551646 -76.33858013 68.51084852 C-77.07008785 68.54427351 -77.80159557 68.5776985 -78.5552702 68.61213636 C-87.96540322 69.14246762 -95.52651587 70.59384096 -102.33467388 77.58116102 C-104.1701247 80.47552578 -104.10445196 81.8081968 -103.95967388 85.14366102 C-102.35625119 85.3173393 -100.7518598 85.48207027 -99.14717388 85.64366102 C-98.25385357 85.73647352 -97.36053326 85.82928602 -96.44014263 85.92491102 C-91.62227541 86.22771749 -86.78704753 86.14366102 -81.95967388 86.14366102 C-81.95967388 121.45366102 -81.95967388 156.76366102 -81.95967388 193.14366102 C-82.61967388 193.14366102 -83.27967388 193.14366102 -83.95967388 193.14366102 C-84.23496929 192.40663954 -84.5102647 191.66961805 -84.7939024 190.91026258 C-85.8779734 188.33755209 -87.07864022 186.20219008 -88.61201763 183.87803602 C-89.13553814 183.0792201 -89.65905865 182.28040419 -90.19844341 181.45738173 C-91.03931499 180.18833998 -91.03931499 180.18833998 -91.89717388 178.89366102 C-93.08096546 177.09040546 -94.26455603 175.28701792 -95.44795513 173.48350477 C-96.04044048 172.58357801 -96.63292583 171.68365126 -97.24336529 170.75645399 C-99.70961051 167.00200785 -102.14844208 163.23012331 -104.58467388 159.45616102 C-105.48563524 158.06287992 -106.38667664 156.66965057 -107.28779888 155.27647352 C-108.62314081 153.21107969 -109.95839961 151.14563213 -111.29365826 149.08018446 C-117.22428922 139.90718665 -123.16780448 130.74270941 -129.1232481 121.58579969 C-132.57570717 116.27625093 -136.02115918 110.96224956 -139.45967388 105.64366102 C-143.63885906 99.17991663 -147.82782496 92.72257623 -152.02217388 86.26866102 C-152.58291607 85.40563368 -153.14365826 84.54260633 -153.72139263 83.65342665 C-154.50643169 82.44589735 -154.50643169 82.44589735 -155.30733013 81.21397352 C-155.7714732 80.49999403 -156.23561626 79.78601454 -156.71382427 79.0503993 C-157.78648912 77.4087155 -158.87187645 75.77535717 -159.95967388 74.14366102 C-162.370756 73.80704372 -162.370756 73.80704372 -165.20039654 74.04673719 C-166.29558605 74.10057066 -167.39077557 74.15440413 -168.51915264 74.20986891 C-170.30342159 74.32211554 -170.30342159 74.32211554 -172.12373638 74.43662977 C-173.34491161 74.5027194 -174.56608685 74.56880903 -175.82426739 74.63690138 C-178.41555463 74.78034516 -181.00643291 74.9313417 -183.59688091 75.08921766 C-187.54645242 75.32884209 -191.49676537 75.54392659 -195.44795513 75.75498915 C-197.96496531 75.89740829 -200.48189584 76.04124349 -202.99873638 76.18662977 C-204.17610363 76.2513397 -205.35347088 76.31604963 -206.56651592 76.38272047 C-217.36132193 76.83001424 -217.36132193 76.83001424 -226.83467388 81.39366102 C-230.69627559 86.39102794 -230.95967388 89.8037867 -230.95967388 96.14366102 C-223.69967388 96.14366102 -216.43967388 96.14366102 -208.95967388 96.14366102 C-209.28967388 147.29366102 -209.61967388 198.44366102 -209.95967388 251.14366102 C-215.23967388 252.79366102 -220.51967388 254.44366102 -225.95967388 256.14366102 C-230.22794261 260.41192975 -230.52236307 261.45862047 -230.95967388 267.14366102 C-216.76180851 266.72117706 -202.57431892 266.15318741 -188.39717388 265.26866102 C-187.20454937 265.20243544 -186.01192486 265.13620985 -184.78316021 265.06797743 C-172.91210438 264.33572495 -172.91210438 264.33572495 -162.45186138 259.20616102 C-161.91818951 258.52553602 -161.38451763 257.84491102 -160.83467388 257.14366102 C-160.27522076 256.46303602 -159.71576763 255.78241102 -159.13936138 255.08116102 C-157.69964578 253.09465911 -157.69964578 253.09465911 -157.95967388 250.14366102 C-160.687289 249.4700273 -163.41647288 248.80456658 -166.14717388 248.14366102 C-166.91609966 247.95287977 -167.68502544 247.76209852 -168.47725201 247.56553602 C-169.22813091 247.38506727 -169.97900982 247.20459852 -170.75264263 247.01866102 C-171.78167706 246.76729383 -171.78167706 246.76729383 -172.83150005 246.51084852 C-175.42093742 246.00197413 -175.42093742 246.00197413 -179.95967388 246.14366102 C-179.62967388 208.19366102 -179.29967388 170.24366102 -178.95967388 131.14366102 C-165.21381753 152.90793358 -165.21381753 152.90793358 -159.64717388 161.83116102 C-159.02673199 162.82462538 -158.40629009 163.81808973 -157.76704693 164.84165907 C-155.18503553 168.97606137 -152.6041357 173.11115715 -150.02315044 177.24620008 C-142.18999383 189.79430681 -134.3356234 202.32813644 -126.42451763 214.82725477 C-124.38402004 218.05396163 -122.3486647 221.28390154 -120.31318951 224.51377821 C-118.80257402 226.90797931 -117.28769907 229.29944062 -115.77217388 231.69053602 C-114.00397172 234.48180365 -112.25356711 237.28255776 -110.52217388 240.09678602 C-105.3627528 248.42198994 -100.0504981 256.68190055 -91.83467388 262.26866102 C-79.02119339 265.16202759 -65.82765475 263.04878574 -54.47119319 256.41928864 C-52.62739278 255.10701246 -52.62739278 255.10701246 -52.08272171 251.96528196 C-52.08179992 250.70058199 -52.08087812 249.43588202 -52.0799284 248.1328578 C-52.06483161 247.07417474 -52.06483161 247.07417474 -52.04942983 245.99410415 C-52.02418135 243.62850472 -52.04881073 241.26606668 -52.07319927 238.90049696 C-52.06531159 237.20533063 -52.05435145 235.5101762 -52.04054546 233.81504774 C-52.0117784 229.21178743 -52.02607178 224.60954197 -52.04798722 220.00628138 C-52.06360089 215.19622086 -52.03976677 210.3863615 -52.02008343 205.57633924 C-51.98881916 196.46736808 -51.99312844 187.35877343 -52.010158 178.24977851 C-52.02781749 167.87979359 -52.0059117 157.51001102 -51.98065102 147.14005566 C-51.92957492 125.80785467 -51.92828725 104.47588956 -51.95967388 83.14366102 C-51.33899029 82.95247694 -50.71830669 82.76129286 -50.07881451 82.56431532 C-49.2660606 82.30561659 -48.45330669 82.04691786 -47.61592388 81.78037977 C-46.40646099 81.40079115 -46.40646099 81.40079115 -45.17256451 81.01353407 C-41.88769026 79.72227117 -40.61072177 78.23937581 -38.95967388 75.14366102 C-38.37682369 72.44044203 -38.14777829 69.91820111 -37.95967388 67.14366102 C-46.67032591 67.01960291 -55.33241882 67.42707439 -64.02778912 67.88828993 Z " fill="#000000" transform="translate(425.95967388153076,127.85633897781372)"/>
<path d="M0 0 C1.46153297 1.0712772 2.92381196 2.14153712 4.38671875 3.2109375 C8.44398162 6.18360654 12.48768036 9.17422402 16.52832031 12.16943359 C20.51318376 15.12068864 24.50683356 18.05999453 28.5 21 C33.40578326 24.61255648 38.30947222 28.22786122 43.20703125 31.8515625 C44.06167969 32.48320313 44.91632813 33.11484375 45.796875 33.765625 C47.42662052 34.97021951 49.05557784 36.17588143 50.68359375 37.3828125 C53.92043776 39.77379135 57.14412998 42.11749476 60.54296875 44.2734375 C61.35378906 44.84320313 62.16460937 45.41296875 63 46 C63 46.66 63 47.32 63 48 C26.94836363 50.29865621 -9.10358804 52.59230188 -45.15596709 54.87928087 C-49.41770105 55.14962781 -53.67943239 55.420016 -57.94116211 55.69042969 C-58.78955266 55.74426075 -59.63794322 55.79809182 -60.51204257 55.85355413 C-74.2272802 56.72389565 -87.94230333 57.59757377 -101.65724934 58.47249734 C-115.74270413 59.37098191 -129.82838522 60.26585215 -143.91428035 61.15740681 C-152.5975359 61.7071192 -161.28060535 62.2596094 -169.96345364 62.81571794 C-175.9273881 63.19741691 -181.89153996 63.57558719 -187.85586984 63.95105624 C-191.29071359 64.16739033 -194.72544504 64.38520883 -198.15992546 64.60724258 C-242.39026703 67.45694863 -242.39026703 67.45694863 -257 55 C-260.73539247 51.52913703 -264.34489006 47.9377676 -267.94140625 44.32421875 C-268.95958353 43.3073919 -269.97805727 42.29086182 -270.99681091 41.27461243 C-273.11189057 39.1624569 -275.22337118 37.04678774 -277.33227539 34.9284668 C-280.03905984 32.21018639 -282.75486509 29.50112251 -285.47334385 26.79454327 C-287.56924013 24.70585212 -289.66037712 22.61244867 -291.75007439 20.51755714 C-292.75058068 19.51571589 -293.75257698 18.51536039 -294.75607491 17.51651573 C-296.1489321 16.12871245 -297.53473846 14.73384332 -298.92016602 13.33862305 C-299.71020523 12.54699265 -300.50024445 11.75536224 -301.31422424 10.93974304 C-303 9 -303 9 -303 7 C-249.00736754 3.07169681 -195.01046737 -0.79334173 -141.00750732 -4.57712936 C-129.51912938 -5.38209963 -118.03095107 -6.1898098 -106.54301214 -7.00102222 C-98.26201761 -7.58556673 -89.98082052 -8.16718205 -81.69946527 -8.74659359 C-76.8236941 -9.08780155 -71.94801582 -9.43022015 -67.07255554 -9.77584457 C-62.55410156 -10.09609879 -58.0354067 -10.41270781 -53.51650238 -10.72654152 C-51.87292471 -10.84130976 -50.22943655 -10.95736888 -48.58605194 -11.07486916 C-28.61048867 -12.50130127 -16.46923875 -12.25094827 0 0 Z " fill="#000000" transform="translate(365,62)"/>
<path d="M0 0 C24.60859061 12.27658592 49.27396884 30.16911361 59 57 C65.07476933 79.58454867 64.42413208 104.13368145 64.37109375 127.33984375 C64.36972508 128.15115802 64.36835642 128.9624723 64.36694628 129.79837185 C64.31732527 150.9588316 63.72501903 172.09478229 62.96146739 193.23995459 C62.52236279 205.53509014 62.22434592 217.82791685 62.02124023 230.12915039 C62.00679044 231.00183829 61.99234065 231.87452618 61.97745299 232.77365916 C61.90564824 237.15401406 61.83615098 241.53440197 61.7677983 245.91481197 C61.20245477 281.95555932 60.23829976 317.97638781 59 354 C55.158924 350.85197419 51.90409249 347.92279434 48.8125 344 C45.41744227 339.75332004 41.96588224 335.57292229 38.4375 331.4375 C34.56502994 326.8855675 30.79556602 322.26827626 27.0859375 317.58203125 C25.1069049 315.13232985 23.08098365 312.72853174 21.03344727 310.3359375 C19.14505303 308.12577319 17.27393358 305.90142707 15.40673828 303.67333984 C14.47521465 302.56527615 13.53873968 301.46135455 12.59716797 300.36181641 C11.23123122 298.75752828 9.89481824 297.13225245 8.5625 295.5 C7.78003906 294.5615625 6.99757813 293.623125 6.19140625 292.65625 C-2.292506 279.76334895 -0.53965902 263.89878636 -0.45410156 249.18823242 C-0.4507374 246.46713315 -0.45343316 243.74604756 -0.45587158 241.02494812 C-0.4579593 235.18703512 -0.4455114 229.34930226 -0.42292023 223.51143456 C-0.39027957 215.07110372 -0.37998094 206.63085915 -0.37496826 198.19047204 C-0.36623443 184.49338719 -0.33967102 170.79639814 -0.30175781 157.09936523 C-0.26498804 143.80151851 -0.23670066 130.50369791 -0.21972656 117.20581055 C-0.21867567 116.38481517 -0.21762477 115.5638198 -0.21654204 114.71794578 C-0.21132152 110.59886052 -0.20626678 106.47977508 -0.20129442 102.36068952 C-0.15989198 68.24039023 -0.08949597 34.1202069 0 0 Z " fill="#000000" transform="translate(49,85)"/>
</svg>
