<?xml version="1.0" encoding="UTF-8"?>
<svg version="1.1" xmlns="http://www.w3.org/2000/svg" width="512" height="512">
<path d="M0 0 C0 158.4 0 316.8 0 480 C-6.98798808 478.72945671 -13.75843718 477.41022235 -20.60205078 475.62768555 C-21.49947369 475.39731189 -22.39689659 475.16693823 -23.32151413 474.92958355 C-26.280417 474.16900806 -29.23785761 473.40290354 -32.1953125 472.63671875 C-34.31047301 472.09176559 -36.42571966 471.5471467 -38.54104614 471.00283813 C-44.22141285 469.54011248 -49.90050841 468.07250774 -55.57936096 466.60391617 C-61.54926949 465.06091626 -67.52032591 463.5223702 -73.49121094 461.9831543 C-104.60514254 453.95978701 -135.71129723 445.90616224 -166.81152344 437.82983398 C-185.39368821 433.00471736 -203.97986894 428.19547416 -222.5703125 423.40234375 C-224.18870781 422.98502456 -224.18870781 422.98502456 -225.83979797 422.55927467 C-236.47954925 419.8157257 -247.1195231 417.07304569 -257.76024818 414.33327579 C-261.65965787 413.32905334 -265.5588551 412.32400778 -269.458004 411.31877327 C-271.27991658 410.84928803 -273.10192902 410.38019014 -274.92404556 409.91149712 C-277.41884907 409.26975205 -279.91331941 408.6267275 -282.40771484 407.98339844 C-283.50539373 407.70157196 -283.50539373 407.70157196 -284.62524796 407.41405201 C-287.45095458 406.68411832 -290.23013189 405.92328937 -293 405 C-293 296.1 -293 187.2 -293 75 C-201.35309236 51.31596769 -201.35309236 51.31596769 -168.64013672 42.86547852 C-131.95737534 33.3889537 -95.27907675 23.89536062 -58.60651016 14.37945557 C-54.77772473 13.38602438 -50.94880903 12.39310145 -47.11956787 11.40142822 C-45.64839399 11.02039661 -44.17722291 10.63935423 -42.70605469 10.25830078 C-41.98843838 10.07243912 -41.27082207 9.88657745 -40.53145981 9.69508362 C-36.07907936 8.54114484 -31.62830654 7.38119807 -27.17856407 6.21712971 C-24.26910668 5.4564818 -21.35893591 4.69858798 -18.44864273 3.94114494 C-17.08565574 3.58565638 -15.72300424 3.22887866 -14.36071396 2.87072945 C-12.50061413 2.38180566 -10.63925384 1.89768474 -8.77783203 1.41381836 C-7.72951202 1.13952499 -6.68119202 0.86523163 -5.60110474 0.58262634 C-3 0 -3 0 0 0 Z M-177 123 C-188.84924198 136.43035249 -196.33416631 154.9670042 -197 173 C-197.0515625 174.22976562 -197.103125 175.45953125 -197.15625 176.7265625 C-197.83264802 200.66322625 -191.40928705 222.09702073 -174.96484375 240.0703125 C-165.45210629 249.41284193 -154.5566166 256.12408206 -142.88598633 262.35864258 C-117.20564402 276.10996937 -117.20564402 276.10996937 -112.3671875 289.7890625 C-110.78921371 299.29047917 -110.58316726 310.72205085 -116 319 C-120.76424942 324.80050526 -127.60706423 328.40135587 -135.04980469 329.22753906 C-154.89933724 330.5943973 -173.45964708 325.02690194 -190 314 C-190.33 314 -190.66 314 -191 314 C-192.14681737 320.15503978 -193.28526131 326.31158636 -194.41796875 332.46923828 C-194.80407369 334.5626915 -195.19207575 336.65579577 -195.58203125 338.74853516 C-196.14304845 341.76114027 -196.697173 344.77494509 -197.25 347.7890625 C-197.42499023 348.72054108 -197.59998047 349.65201965 -197.78027344 350.61172485 C-199.0018944 357.26015573 -199.0018944 357.26015573 -199 364 C-186.10123999 376.58485213 -160.75091191 380.25898404 -143.4987793 380.2487793 C-122.50692538 379.91580341 -103.05507373 372.8824889 -87.8984375 358.12109375 C-71.33881539 340.99780968 -65.61802807 316.16182304 -66 293 C-66.89953333 268.73815495 -75.03473027 247.99054675 -92.7265625 230.9765625 C-101.73903701 223.1409747 -112.17291548 217.48639746 -122.60180664 211.78051758 C-134.66184351 205.13265879 -147.404905 197.785285 -152 184 C-152.64566061 174.22817493 -152.35813707 166.98923222 -146.8125 158.75 C-139.37243315 151.47526797 -131.10878219 150.72586879 -121.11938477 150.7578125 C-107.20640908 150.97915844 -96.2163853 155.84060094 -84 162 C-81.27859273 151.84108884 -79.28364797 141.57320982 -77.3125 131.25 C-76.98923491 129.57025423 -76.66566928 127.89056627 -76.34179688 126.2109375 C-75.5577374 122.14128203 -74.77772889 118.0708698 -74 114 C-80.06352547 110.13509312 -85.88692994 106.91970981 -92.75 104.75 C-93.9105188 104.37560791 -93.9105188 104.37560791 -95.09448242 103.99365234 C-124.34989836 94.91178772 -155.7178438 100.35988195 -177 123 Z " fill="#EBEBEB" transform="translate(293,16)"/>
<path d="M0 0 C17.9325587 0 31.44339407 6.46428693 44 19 C44.72316406 19.7115625 45.44632812 20.423125 46.19140625 21.15625 C58.05982997 33.58769192 62.29655846 49.70064493 62.23828125 66.50390625 C61.91486477 71.24911519 60.83024188 75.65037474 59.55859375 80.22265625 C58.97384357 83.13005048 59.01934412 84.26297279 60 87 C61.40738391 88.88596616 61.40738391 88.88596616 63.23120117 90.68286133 C63.91248581 91.38651321 64.59377045 92.0901651 65.29570007 92.81513977 C66.03729874 93.56321396 66.7788974 94.31128815 67.54296875 95.08203125 C68.68479362 96.24239143 68.68479362 96.24239143 69.84968567 97.42619324 C71.46219704 99.05827195 73.0789062 100.68621227 74.69946289 102.31030273 C77.17826081 104.80320823 79.62917842 107.32149726 82.08007812 109.84179688 C83.64939583 111.42350964 85.22030758 113.00364278 86.79296875 114.58203125 C87.52444626 115.34022659 88.25592377 116.09842194 89.00956726 116.8795929 C92.96902376 121.03010571 92.96902376 121.03010571 98.36425781 122.00854492 C99.23405273 121.6757251 100.10384766 121.34290527 101 121 C101.78503906 120.7628125 102.57007813 120.525625 103.37890625 120.28125 C104.09949219 120.0234375 104.82007813 119.765625 105.5625 119.5 C121.0177043 113.99012324 139.46743757 115.88683576 154.125 122.6875 C170.79424677 131.52263602 181.02247999 144.92009112 187.23828125 162.4921875 C192.13121314 178.6012248 189.72320888 196.90793959 182.3125 211.75 C178.94065157 217.52545828 174.70112979 222.27451203 170 227 C169.40832031 227.62648438 168.81664062 228.25296875 168.20703125 228.8984375 C164.11278042 232.89326944 159.4674282 235.61069448 154.4375 238.25 C153.83156006 238.5795166 153.22562012 238.9090332 152.60131836 239.24853516 C148.08358261 241.49733805 144.0850534 242.24584458 139.078125 242.86303711 C129.41195498 244.5212806 123.80431239 250.26585599 117.06640625 256.98828125 C115.81086007 258.21024053 114.55432406 259.4311835 113.29685974 260.65116882 C110.68176676 263.20382629 108.09173432 265.77912652 105.51538086 268.37084961 C102.89024449 271.00591672 100.23089568 273.59575936 97.52905273 276.15209961 C80.12983776 291.12752687 80.12983776 291.12752687 72.20603943 311.47489929 C72.4186126 314.96908142 72.95762734 318.29847299 73.68560791 321.71908569 C75.35799411 333.85224594 67.23675787 347.98127686 60.25 357.25 C50.25991934 369.03075549 36.21694447 377.27696783 21 380 C14.07 380 7.14 380 0 380 C0 338.09 0 296.18 0 253 C12.85166052 248.71611316 26.84246165 253.94748722 39 258 C50.88 246.12 62.76 234.24 75 222 C72.69 218.37 70.38 214.74 68 211 C66.29296875 207.6171875 66.29296875 207.6171875 65.1875 204.875 C64.80980469 203.96492187 64.43210937 203.05484375 64.04296875 202.1171875 C62.03935999 196.12887366 60.70211217 190.99890025 61.50341797 184.64892578 C62.57662859 175.52854062 62.91472856 167.88032098 57.32519531 160.17871094 C53.22195527 155.2960347 48.71864122 150.88206891 44.03222656 146.5625 C41.09571946 143.84793247 38.27915708 141.05553225 35.453125 138.2265625 C33.62278279 136.45513778 31.78702282 134.68929008 29.9453125 132.9296875 C28.67749435 131.68190018 28.67749435 131.68190018 27.38406372 130.40890503 C23.06192862 126.31795534 23.06192862 126.31795534 17.50823975 124.92633057 C15.02953132 125.38239222 15.02953132 125.38239222 12.81442261 126.18606567 C8.67019218 127.38458198 4.29264708 127.57073529 0 128 C0 85.76 0 43.52 0 0 Z " fill="#EAEAEA" transform="translate(323,66)"/>
<path d="M0 0 C0.66 0.33 1.32 0.66 2 1 C-1.3 4.3 -4.6 7.6 -8 11 C-8 6.67750434 -5.85084926 5.11604454 -3 2 C-2.01 1.34 -1.02 0.68 0 0 Z " fill="#B8B7B8" transform="translate(152,169)"/>
</svg>
