<?xml version="1.0" encoding="UTF-8"?>
<svg version="1.1" xmlns="http://www.w3.org/2000/svg" width="512" height="512">
<path d="M0 0 C12.99209123 8.87541116 20.61406202 20.45703777 24.1875 35.75 C24.81939688 40.84689024 24.86559202 45.8889092 24.81860352 51.01611328 C24.82375945 52.47505559 24.8310532 53.93399162 24.84028625 55.39291382 C24.85859284 59.3062377 24.84599668 63.2188687 24.82619596 67.13216257 C24.80964049 71.25534077 24.81864528 75.37848084 24.82371521 79.50167847 C24.8282165 86.41936128 24.81248666 93.33677196 24.78442383 100.25439453 C24.7523554 108.22018657 24.75240395 116.1854889 24.7696386 124.15131581 C24.78557082 131.85872974 24.77872893 139.56596635 24.76170158 147.27337265 C24.75487942 150.53383052 24.75581316 153.79414417 24.76324654 157.05459976 C24.77097905 160.90120874 24.75855987 164.7472686 24.73139763 168.59378433 C24.7245859 169.99446993 24.72433699 171.39520755 24.73161316 172.79589081 C24.78375597 184.15276198 23.26822238 195.17804017 16.6875 204.75 C16.1203125 205.595625 15.553125 206.44125 14.96875 207.3125 C6.49257167 218.91148087 -5.80976242 227.13587485 -20.16796875 229.46484375 C-36.34935425 231.2096608 -50.50840513 227.71933017 -63.3984375 217.75 C-74.75825821 208.19819881 -81.46870444 195.58982869 -82.8125 180.75 C-82.96291697 176.25949225 -82.95937108 171.77103232 -82.95776367 167.27832031 C-82.96075954 165.91584176 -82.96416306 164.55336406 -82.96794128 163.19088745 C-82.97674289 159.50472596 -82.9791178 155.81858771 -82.97975707 152.13241673 C-82.98046987 149.82450942 -82.98260855 147.51660794 -82.98525429 145.20870209 C-82.99449571 137.14303719 -82.99859077 129.07738877 -82.99780273 121.01171875 C-82.99720259 113.51651017 -83.00774515 106.02137371 -83.0235464 98.52618337 C-83.03666286 92.0724171 -83.0419849 85.61867429 -83.04134732 79.16489482 C-83.0410935 75.31873838 -83.04388031 71.47264605 -83.05452538 67.62650299 C-83.06427551 64.00507301 -83.06423867 60.38376753 -83.05700874 56.76233292 C-83.05548074 54.81669759 -83.06376148 52.87106209 -83.07244873 50.92544556 C-83.03502618 40.37102847 -82.05752125 30.90336311 -77.0625 21.5 C-76.52689453 20.46770264 -76.52689453 20.46770264 -75.98046875 19.41455078 C-68.91630346 6.14392128 -57.66472027 -1.40132357 -43.57421875 -6.3984375 C-28.74566815 -9.75526412 -13.03232886 -7.76961489 0 0 Z " fill="#000000" transform="translate(349.8125,7.25)"/>
<path d="M0 0 C10.87758343 9.01238324 17.29150437 20.85526031 19.2336216 34.76917076 C19.7249571 40.01336174 19.59636286 45.29550834 19.59448242 50.55786133 C19.59747826 51.9219624 19.60088176 53.28606262 19.60466003 54.65016174 C19.61346119 58.34038819 19.61583651 62.03059141 19.61647582 65.72082734 C19.61718855 68.03073697 19.61932708 70.34064076 19.62197304 72.65054893 C19.63121371 80.72154487 19.63530954 88.79252434 19.63452148 96.86352539 C19.63392108 104.36670633 19.64446878 111.86981529 19.66026515 119.37297803 C19.67337454 125.83182416 19.67870395 132.29064686 19.67806607 138.74950618 C19.67781208 142.5995431 19.68060856 146.44951599 19.69124413 150.29953957 C19.7009825 153.92342876 19.70096531 157.54719347 19.69372749 161.17108727 C19.69219684 163.12049341 19.70048819 165.06989969 19.70916748 167.01928711 C19.65013008 183.65047034 15.37107084 197.18393586 4.13671875 209.6328125 C-10.08845928 222.53471815 -23.22609432 225.90799385 -41.98681641 225.24511719 C-54.7789184 224.37298378 -66.12143987 217.41326378 -74.7734375 208.23046875 C-82.23068958 199.1670393 -87.65140238 187.80712422 -87.69795227 175.98219299 C-87.70510757 174.73335831 -87.71226288 173.48452362 -87.71963501 172.19784546 C-87.72247515 170.81622339 -87.7251869 169.43460106 -87.7277832 168.05297852 C-87.734051 166.59566588 -87.74069808 165.13835484 -87.74769592 163.68104553 C-87.76871211 158.89544787 -87.77910032 154.10984999 -87.7890625 149.32421875 C-87.79311184 147.67271343 -87.79722882 146.02120828 -87.80141258 144.36970329 C-87.82046383 136.60466239 -87.83469148 128.83963096 -87.84302455 121.07457119 C-87.85277816 112.13487908 -87.87904867 103.19543582 -87.91952544 94.2558313 C-87.94978781 87.33246046 -87.96450322 80.40916051 -87.96780556 73.48572487 C-87.97014575 69.35768103 -87.97896972 65.22990301 -88.00426674 61.10193062 C-88.0277285 57.21041063 -88.03170901 53.31932802 -88.02150536 49.42775536 C-88.02101414 48.0093095 -88.02721037 46.59084078 -88.0410614 45.17246246 C-88.14629836 33.74453589 -86.67554265 22.70632908 -80.05078125 13.0703125 C-79.48359375 12.2246875 -78.91640625 11.3790625 -78.33203125 10.5078125 C-69.85585292 -1.09116837 -57.55351883 -9.31556235 -43.1953125 -11.64453125 C-26.97249736 -13.3938156 -12.99567871 -9.8313404 0 0 Z " fill="#000000" transform="translate(225.55078125,286.9296875)"/>
<path d="M0 0 C1.36247855 -0.00299587 2.72495626 -0.00639939 4.08743286 -0.01017761 C7.77359435 -0.01897922 11.4597326 -0.02135413 15.14590359 -0.0219934 C17.4538109 -0.02270619 19.76171237 -0.02484488 22.06961823 -0.02749062 C30.13528313 -0.03673204 38.20093154 -0.0408271 46.26660156 -0.04003906 C53.76181014 -0.03943891 61.2569466 -0.04998148 68.75213695 -0.06578273 C75.20590321 -0.07889919 81.65964602 -0.08422123 88.11342549 -0.08358365 C91.95958194 -0.08332983 95.80567426 -0.08611664 99.65181732 -0.0967617 C103.2732473 -0.10651184 106.89455278 -0.106475 110.5159874 -0.09924507 C112.46162272 -0.09771707 114.40725822 -0.10599781 116.35287476 -0.11468506 C126.90514476 -0.07727012 136.3776347 0.89765435 145.77832031 5.89526367 C146.46869385 6.25595947 147.15906738 6.61665527 147.87036133 6.98828125 C160.64525416 13.82475596 169.22830991 25.24701577 173.52832031 39.14526367 C177.257445 52.25517022 175.20031286 68.21525259 168.98535156 80.09448242 C161.12360013 93.28135611 150.22127969 101.80416204 135.52832031 106.14526367 C131.74894743 107.03951337 128.23863881 107.27704021 124.35791016 107.29243469 C123.11611496 107.29959 121.87431976 107.3067453 120.59489441 107.31411743 C119.22634913 107.31695738 117.85780358 107.31966915 116.48925781 107.32226562 C115.04164977 107.32853534 113.59404332 107.33518259 112.1464386 107.34217834 C107.39874379 107.36316841 102.65104886 107.37357901 97.90332031 107.38354492 C96.26388533 107.38759498 94.62445052 107.39171197 92.98501587 107.395895 C85.2776435 107.41493903 77.57028064 107.42916925 69.86288929 107.43750697 C60.99225704 107.44726353 52.12187537 107.47354484 43.25133133 107.51400787 C36.37889531 107.54427059 29.50653069 107.5589856 22.63402939 107.56228799 C18.5372987 107.56462774 14.44083591 107.57344631 10.34417725 107.59874916 C6.48301171 107.62221226 2.62228699 107.62619093 -1.23893166 107.61598778 C-2.64609058 107.61549663 -4.05327257 107.6216909 -5.46036339 107.63554382 C-16.85329421 107.74131439 -27.86741988 106.24819229 -37.47167969 99.64526367 C-38.31730469 99.07807617 -39.16292969 98.51088867 -40.03417969 97.92651367 C-51.63316056 89.45033534 -59.85755454 77.14800125 -62.18652344 62.78979492 C-63.93580779 46.56697978 -60.37333259 32.59016113 -50.54199219 19.59448242 C-41.52918233 8.71638407 -29.68625482 2.30306175 -15.77184296 0.36086082 C-10.53322692 -0.13016115 -5.256777 -0.00188078 0 0 Z " fill="#000000" transform="translate(337.4716796875,266.854736328125)"/>
<path d="M0 0 C1.87325203 -0.01073296 1.87325203 -0.01073296 3.78434753 -0.02168274 C5.1659696 -0.02452288 6.54759193 -0.02723463 7.92921448 -0.02983093 C9.38652711 -0.03609873 10.84383815 -0.04274581 12.30114746 -0.04974365 C17.08674513 -0.07075984 21.872343 -0.08114805 26.65797424 -0.09111023 C28.30947956 -0.09515957 29.96098472 -0.09927655 31.6124897 -0.10346031 C39.3775306 -0.12251156 47.14256203 -0.13673921 54.9076218 -0.14507228 C63.84731391 -0.15482589 72.78675717 -0.1810964 81.72636169 -0.22157317 C88.64973253 -0.25183554 95.57303249 -0.26655095 102.49646813 -0.26985329 C106.62451197 -0.27219348 110.75228998 -0.28101745 114.88026237 -0.30631447 C118.77178236 -0.32977623 122.66286497 -0.33375673 126.55443764 -0.32355309 C127.9728835 -0.32306187 129.39135222 -0.3292581 130.80973053 -0.34310913 C142.23765711 -0.44834609 153.27586391 1.02240962 162.91188049 7.64717102 C163.75750549 8.21435852 164.60313049 8.78154602 165.47438049 9.36592102 C177.07336136 17.84209935 185.29775534 30.14443344 187.62672424 44.50263977 C189.37154129 60.68402528 185.88121066 74.84307615 175.91188049 87.73310852 C166.36034542 99.09261274 153.75153006 105.80396754 138.91188049 107.14717102 C134.41608422 107.29761386 129.92233025 107.294042 125.42433167 107.29243469 C124.0602306 107.29543053 122.69613037 107.29883403 121.33203125 107.3026123 C117.64180481 107.31141346 113.95160158 107.31378878 110.26136565 107.31442809 C107.95145603 107.31514082 105.64155223 107.31727935 103.33164406 107.31992531 C95.26064812 107.32916598 87.18966865 107.33326181 79.1186676 107.33247375 C71.61548666 107.33187336 64.1123777 107.34242105 56.60921496 107.35821742 C50.15036883 107.37132681 43.69154614 107.37665623 37.23268682 107.37601835 C33.3826499 107.37576435 29.532677 107.37856084 25.68265343 107.3891964 C22.05876423 107.39893477 18.43499952 107.39891758 14.81110573 107.39167976 C12.86169959 107.39014911 10.9122933 107.39844046 8.96290588 107.40711975 C-7.66827735 107.34808235 -21.20174287 103.06902311 -33.65061951 91.83467102 C-46.55252516 77.60949299 -49.92580085 64.47185795 -49.26292419 45.71113586 C-48.39079079 32.91903387 -41.43107078 21.5765124 -32.24827576 12.92451477 C-23.18484631 5.46726269 -11.82493123 0.04654989 0 0 Z " fill="#000000" transform="translate(49.08811950683594,137.8528289794922)"/>
<path d="M0 0 C0.91652344 -0.00191345 1.83304687 -0.0038269 2.77734375 -0.00579834 C4.71728795 -0.00715742 6.65724132 -0.00348033 8.59716797 0.00488281 C11.52463001 0.01548781 14.45146448 0.00502932 17.37890625 -0.0078125 C37.78217505 -0.02467632 54.47117908 1.89432673 69.90625 16.48046875 C80.7965725 27.67935039 84.99964988 41.07619885 84.92602539 56.33056641 C84.61239066 69.98831327 79.13144482 82.72636421 69.6875 92.640625 C56.74222524 104.55027778 42.74160551 108.36647776 25.46875 107.68359375 C12.71295707 106.81586927 0.39411454 100.51874842 -8.4375 91.265625 C-19.16013836 78.95521135 -22.57286621 65.33673991 -22.640625 49.390625 C-22.64632507 48.34793457 -22.65202515 47.30524414 -22.65789795 46.23095703 C-22.66731845 44.0322368 -22.67387016 41.83350264 -22.67773438 39.63476562 C-22.68746676 36.27709431 -22.71852932 32.92002858 -22.75 29.5625 C-22.75652824 27.42187862 -22.76177941 25.28125288 -22.765625 23.140625 C-22.7779718 22.14047363 -22.7903186 21.14032227 -22.80303955 20.10986328 C-22.785903 14.73565585 -22.49698015 10.89063399 -19.4375 6.265625 C-13.39023376 0.53663593 -7.97076683 -0.03692211 0 0 Z " fill="#000000" transform="translate(297.4375,404.734375)"/>
<path d="M0 0 C11.3539131 7.96565783 18.77853024 20.38932676 21.72265625 33.91015625 C23.17271517 51.86288577 20.30198851 66.1512753 9.03515625 80.53515625 C-0.0219474 90.45818454 -12.01903132 96.17149858 -25.27734375 97.91015625 C-28.90206072 98.07462137 -32.52426929 98.09786471 -36.15234375 98.11328125 C-37.19503418 98.11898132 -38.23772461 98.1246814 -39.31201172 98.1305542 C-41.51073195 98.1399747 -43.70946611 98.14652641 -45.90820312 98.15039062 C-49.26587444 98.16012301 -52.62294017 98.19118557 -55.98046875 98.22265625 C-58.12109013 98.22918449 -60.26171587 98.23443566 -62.40234375 98.23828125 C-63.40249512 98.25062805 -64.40264648 98.26297485 -65.43310547 98.2756958 C-70.8073129 98.25855925 -74.65233476 97.9696364 -79.27734375 94.91015625 C-85.00633282 88.86289001 -85.57989086 83.44342308 -85.54296875 75.47265625 C-85.5448822 74.55613281 -85.54679565 73.63960938 -85.54876709 72.6953125 C-85.55012617 70.7553683 -85.54644908 68.81541493 -85.53808594 66.87548828 C-85.52748094 63.94802624 -85.53793943 61.02119177 -85.55078125 58.09375 C-85.56814421 36.95006201 -83.25473189 20.70017022 -68.21875 4.72265625 C-49.44504108 -13.46545074 -21.27360226 -13.20140535 0 0 Z " fill="#000000" transform="translate(490.27734375,139.08984375)"/>
<path d="M0 0 C1.04269043 -0.00570007 2.08538086 -0.01140015 3.15966797 -0.01727295 C5.3583882 -0.02669345 7.55712236 -0.03324516 9.75585938 -0.03710938 C13.11353069 -0.04684176 16.47059642 -0.07790432 19.828125 -0.109375 C21.96874638 -0.11590324 24.10937212 -0.12115441 26.25 -0.125 C27.75022705 -0.1435202 27.75022705 -0.1435202 29.28076172 -0.16241455 C34.65496915 -0.145278 38.49999101 0.14364485 43.125 3.203125 C48.85398907 9.25039124 49.42754711 14.66985817 49.390625 22.640625 C49.39253845 23.55714844 49.3944519 24.47367187 49.39642334 25.41796875 C49.39778242 27.35791295 49.39410533 29.29786632 49.38574219 31.23779297 C49.37513719 34.16525501 49.38559568 37.09208948 49.3984375 40.01953125 C49.41580046 61.16321924 47.10238814 77.41311103 32.06640625 93.390625 C21.27242967 103.84790874 7.67371818 107.63718253 -6.93994141 107.56665039 C-20.59768827 107.25301566 -33.33573921 101.77206982 -43.25 92.328125 C-55.15965278 79.38285024 -58.97585276 65.38223051 -58.29296875 48.109375 C-57.42524427 35.35358207 -51.12812342 23.03473954 -41.875 14.203125 C-29.56458635 3.48048664 -15.94611491 0.06775879 0 0 Z " fill="#000000" transform="translate(57.875,274.796875)"/>
<path d="M0 0 C13.04284522 8.38320035 20.4949451 19.10017881 24.6875 34.125 C25.89766379 39.73822719 25.86634112 45.28511756 25.890625 51 C25.89632507 52.04269043 25.90202515 53.08538086 25.90789795 54.15966797 C25.91731845 56.3583882 25.92387016 58.55712236 25.92773438 60.75585938 C25.93746676 64.11353069 25.96852932 67.47059642 26 70.828125 C26.00652824 72.96874638 26.01177941 75.10937212 26.015625 77.25 C26.0279718 78.25015137 26.0403186 79.25030273 26.05303955 80.28076172 C26.03589645 85.65702066 25.7425801 89.49553406 22.6875 94.125 C16.68212842 99.96806424 10.32806802 100.42865975 2.37109375 100.390625 C1.4781813 100.39253845 0.58526886 100.3944519 -0.33470154 100.39642334 C-2.22159101 100.39778063 -4.10848995 100.39411612 -5.99536133 100.38574219 C-8.84153015 100.37512486 -11.68705495 100.38560701 -14.53320312 100.3984375 C-35.5183109 100.41614092 -51.6556933 97.97703059 -67.5 83.06640625 C-77.95728374 72.27242967 -81.74655753 58.67371818 -81.67602539 44.06005859 C-81.36240753 30.40304599 -75.86699752 17.72254079 -66.5 7.75 C-48.31055173 -9.14270533 -21.43138462 -12.15511366 0 0 Z " fill="#000000" transform="translate(211.3125,6.875)"/>
</svg>
