<?xml version="1.0" encoding="UTF-8"?>
<svg version="1.1" xmlns="http://www.w3.org/2000/svg" width="512" height="512">
<path d="M0 0 C0.790278 -0.00569124 1.58055601 -0.01138248 2.39478183 -0.01724619 C3.68815081 -0.019016 3.68815081 -0.019016 5.00764847 -0.02082157 C5.92830447 -0.02590939 6.84896048 -0.03099721 7.79751515 -0.03623921 C10.88963248 -0.05196433 13.98172643 -0.06048889 17.07387161 -0.06893253 C19.28805566 -0.0784708 21.50223821 -0.08836195 23.71641922 -0.09858036 C30.99342963 -0.12996357 38.27045148 -0.1502295 45.54750443 -0.16878605 C47.40425718 -0.17373203 47.40425718 -0.17373203 49.29852009 -0.17877793 C60.9706293 -0.2095544 72.64274204 -0.23642448 84.31488037 -0.25319672 C87.01677077 -0.25714603 89.71866108 -0.26114906 92.4205513 -0.2652216 C93.09206975 -0.26622996 93.7635882 -0.26723832 94.45545569 -0.26827724 C105.33307376 -0.28528342 116.21046431 -0.32639477 127.0879713 -0.37724458 C138.26168399 -0.42904857 149.43531535 -0.45766011 160.60915494 -0.4653936 C166.88053385 -0.47035223 173.15150803 -0.48545462 179.42277145 -0.5251379 C185.32276699 -0.56198066 191.22212623 -0.57042123 197.12221527 -0.55713177 C199.28616124 -0.55718575 201.45013525 -0.56749625 203.61397552 -0.5888834 C206.57197658 -0.61655442 209.52765522 -0.60706066 212.48567581 -0.58844852 C213.76566047 -0.61364092 213.76566047 -0.61364092 215.0715034 -0.63934225 C221.64976298 -0.53613046 225.21147559 1.76245677 230.00062943 6.1398077 C230.93085073 6.98697385 231.86107203 7.83414 232.81948185 8.70697784 C233.67838363 9.56512557 234.5372854 10.4232733 235.42221451 11.3074255 C235.90879239 11.7908834 236.39537027 12.2743413 236.89669293 12.77244943 C238.50029041 14.36816993 240.09676195 15.97082118 241.69325638 17.57364559 C242.85170334 18.72937821 244.0105744 19.88468587 245.16983414 21.03960323 C248.29810163 24.15880027 251.42006677 27.28423317 254.54061913 30.4111464 C257.8140148 33.68962617 261.09231073 36.9632002 264.36981583 40.23757076 C269.86827452 45.73239837 275.36251939 51.23141287 280.85438919 56.73282528 C287.20024133 63.08957655 293.55328808 69.43906908 299.91008788 75.78487116 C305.37635921 81.24206455 310.83872103 86.70314815 316.29783791 92.16749853 C319.55477521 95.42755064 322.81304119 98.6862439 326.07484245 101.94143009 C329.1385264 104.99933331 332.19726982 108.0620943 335.2522831 111.12865925 C336.37323962 112.25225775 337.49589692 113.37416247 338.6203804 114.49423122 C340.15625198 116.02462817 341.68581581 117.56106855 343.21396255 119.09917355 C344.0709792 119.95694425 344.92799585 120.81471495 345.8109827 121.6984787 C349.74555473 126.08529814 351.37483648 129.21412598 351.38373947 135.15357876 C351.39732443 136.97481848 351.39732443 136.97481848 351.41118383 138.83285093 C351.40607966 140.17691085 351.40068758 141.52096969 351.3950386 142.86502743 C351.39992767 144.2955131 351.40611754 145.72599482 351.41349649 147.15646982 C351.42991857 151.08788206 351.42757346 155.01909405 351.42212152 158.95052862 C351.41945396 163.19069958 351.43397835 167.43081684 351.44621658 171.67096615 C351.46728769 179.97989722 351.47181035 188.28875854 351.4700287 196.59771317 C351.46872137 203.35426124 351.47252374 210.11078754 351.47995377 216.8673315 C351.48205298 218.81322241 351.48415058 220.75911331 351.48624659 222.70500422 C351.48781188 224.15782255 351.48781188 224.15782255 351.48940879 225.63999075 C351.50831955 243.96646254 351.50725904 262.29289432 351.50043947 280.61937183 C351.49486923 297.37157117 351.51566574 314.12361733 351.54879993 330.87578088 C351.58256881 348.08271395 351.59770089 365.28957373 351.5930829 382.49654055 C351.59084069 392.15440432 351.59604438 401.81212669 351.62097549 411.46996212 C351.64203047 419.69635903 351.64553958 427.9225371 351.6266759 436.14894313 C351.61754201 440.3430368 351.61630217 444.53672292 351.63703156 448.73078442 C351.65583502 452.57793294 351.65113462 456.42434283 351.62848574 460.27146405 C351.62236638 462.30659972 351.64061716 464.34176487 351.66002226 466.37681723 C351.52706582 480.28612556 346.89544684 490.79664263 337.41859818 500.8116827 C330.1834228 507.64196991 320.50429875 512.25273696 310.54719257 512.27682209 C309.43255888 512.28189663 308.31792519 512.28697118 307.16951472 512.29219949 C305.94493018 512.29269725 304.72034565 512.29319501 303.4586525 512.29370785 C302.1576704 512.2980901 300.8566883 512.30247236 299.5162825 512.3069874 C295.90191513 512.31894309 292.2875611 512.32459904 288.67317784 512.32916856 C284.77588536 512.33512861 280.87860879 512.3467376 276.98132706 512.35745907 C267.5664666 512.38197606 258.15160088 512.39661034 248.73671833 512.40951914 C246.07653045 512.41323195 243.41634309 512.41720512 240.75615573 512.4212718 C224.22984414 512.4465121 207.7035317 512.46856102 191.17720509 512.48099995 C187.34954767 512.48392956 183.52189029 512.48689123 179.69423294 512.48990536 C178.26724591 512.49102443 178.26724591 512.49102443 176.81143086 512.49216612 C161.41067841 512.50481175 146.01004161 512.53802434 130.60934318 512.57970719 C114.79010941 512.62217098 98.97093477 512.64570022 83.15164417 512.65092051 C74.27286864 512.65432987 65.39427376 512.66602867 56.51555443 512.69902325 C48.95156684 512.72708624 41.38779695 512.73799583 33.82376135 512.72682779 C29.96786664 512.7216568 26.11242735 512.72442521 22.25659943 512.74929333 C18.06590686 512.7760941 13.87620735 512.76367245 9.68545914 512.74780941 C8.4809511 512.7616915 7.27644306 512.77557359 6.03543478 512.78987634 C-7.5167353 512.66398906 -17.94300134 507.76324121 -27.67124557 498.55777645 C-35.2259775 490.55521247 -39.15508086 480.62758054 -39.13638496 469.78105164 C-39.13903679 469.03406984 -39.14168862 468.28708805 -39.1444208 467.51747045 C-39.15211446 465.00038069 -39.152673 462.48333971 -39.15327072 459.96623898 C-39.15728531 458.14888904 -39.16172353 456.33154 -39.16655028 454.51419204 C-39.17852222 449.50883244 -39.18416568 444.50348248 -39.18873143 439.49811137 C-39.19468524 434.10387484 -39.20629571 428.70964985 -39.21702194 423.3154211 C-39.24155209 410.28169073 -39.25617456 397.24795654 -39.26908201 384.21421018 C-39.27279367 380.53299849 -39.27676693 376.85178717 -39.28083467 373.17057586 C-39.30607231 350.31235743 -39.32812618 327.45413841 -39.34056282 304.59590912 C-39.34349254 299.30040198 -39.3464542 294.00489487 -39.34946823 288.70938778 C-39.35058731 286.73511825 -39.35058731 286.73511825 -39.35172899 284.72096448 C-39.36438048 263.40335158 -39.39760031 242.08583904 -39.43927006 220.76826168 C-39.48169858 198.88312155 -39.50525898 176.99802413 -39.51048338 155.11284298 C-39.51389658 142.8247168 -39.5256411 130.53672099 -39.55858612 118.24863529 C-39.5866004 107.78245772 -39.59757986 97.31643725 -39.58639066 86.8502251 C-39.5812075 81.51188379 -39.58406889 76.1738714 -39.6088562 70.83557796 C-39.63138397 65.94297112 -39.63058124 61.05092881 -39.61165233 56.15831184 C-39.60885728 54.39373564 -39.61442319 52.62912087 -39.62946527 50.86460657 C-39.75568601 35.0861931 -36.52892199 23.21054351 -25.41733932 11.4679327 C-18.79430768 5.215533 -9.24595065 0.03902132 0 0 Z M-3.81187057 34.5773077 C-8.80410272 40.42535107 -9.12385274 44.80311078 -9.12800503 52.32602406 C-9.12975807 53.0421898 -9.1315111 53.75835554 -9.13331726 54.49622327 C-9.13797907 56.90241091 -9.13551129 59.30853818 -9.13308334 61.71472836 C-9.13495122 63.45472104 -9.13725183 65.1947133 -9.13994867 66.9347049 C-9.14607589 71.72136279 -9.14593199 76.50800323 -9.14475429 81.29466414 C-9.14455052 86.45495197 -9.15006678 91.61523416 -9.15481186 96.77551937 C-9.16312389 106.88718261 -9.16586694 116.99884003 -9.16642424 127.1105064 C-9.16689911 135.32781549 -9.16895241 143.54512266 -9.17212486 151.76243114 C-9.18093273 175.04986872 -9.185544 198.33730169 -9.18479439 221.62474094 C-9.18475443 222.880587 -9.18471448 224.13643305 -9.18467331 225.43033504 C-9.18463243 226.6877108 -9.18459155 227.94508655 -9.18454943 229.2405646 C-9.18414286 249.62448362 -9.19371484 270.00838417 -9.20781168 290.39229785 C-9.22216542 311.31241083 -9.22908242 332.2325148 -9.2282179 353.15263283 C-9.2278856 364.90171121 -9.23064728 376.65077022 -9.24139595 388.39984417 C-9.25048775 398.40207669 -9.25268707 408.40428108 -9.24588653 418.40651594 C-9.24261472 423.51110926 -9.24258844 428.61564855 -9.25123978 433.72023678 C-9.25907647 438.39213778 -9.25770241 443.06394167 -9.24895564 447.73584022 C-9.2474144 449.42692164 -9.24926019 451.11801021 -9.25481572 452.80908321 C-9.26186492 455.1068096 -9.25659083 457.40419431 -9.24825954 459.70190907 C-9.24847691 460.97847649 -9.24869428 462.25504392 -9.24891824 463.57029521 C-8.87632971 468.89977572 -8.09376753 472.87704198 -4.56187057 476.9523077 C0.64603772 481.39808308 4.57680692 482.26322706 11.28152657 482.26844215 C12.33218359 482.2716666 13.38284061 482.27489105 14.46533573 482.2782132 C15.61328117 482.2766646 16.76122661 482.275116 17.94395828 482.27352047 C19.16835715 482.27578603 20.39275603 482.27805158 21.65425789 482.28038579 C25.04993652 482.28562209 28.44556221 482.28637049 31.84124112 482.28519142 C35.50458356 482.28498735 39.16791811 482.29050672 42.83125687 482.29524899 C50.00717739 482.30355463 57.18308969 482.30630378 64.35901462 482.30686136 C70.19169361 482.30733654 76.0243699 482.30939137 81.85704803 482.31256199 C98.39330755 482.32136812 114.92956057 482.3259814 131.46582244 482.32523151 C132.80297133 482.32517158 132.80297133 482.32517158 134.16713333 482.32511044 C135.05965408 482.32506955 135.95217483 482.32502867 136.87174167 482.32498655 C151.33879223 482.32458004 165.80581677 482.33415113 180.2728598 482.3482488 C195.12706675 482.36260957 209.98126101 482.36951916 224.83547509 482.36865503 C233.17518406 482.36832297 241.51486576 482.37107406 249.85456848 482.38183308 C256.95459882 482.39093411 264.0545895 482.39311658 271.15462314 482.38632365 C274.77672945 482.38305651 278.39875967 482.38300876 282.02085876 482.3916769 C285.9483856 482.40097929 289.87580105 482.39477095 293.80333328 482.38704586 C295.51855928 482.39476121 295.51855928 482.39476121 297.26843631 482.40263242 C307.28868483 482.43224491 307.28868483 482.43224491 315.81312943 477.7023077 C320.34587345 472.39252184 321.12637644 468.40550479 321.12367725 461.57386208 C321.1256683 460.45967044 321.12765935 459.3454788 321.12971073 458.19752377 C321.12534147 456.36922417 321.12534147 456.36922417 321.12088394 454.50398922 C321.12173837 453.205231 321.12259279 451.90647277 321.12347311 450.56835824 C321.12570932 446.96534494 321.1217087 443.36236136 321.11669505 439.75935185 C321.11237823 435.8732412 321.11383785 431.98713223 321.11459732 428.10101986 C321.11512177 421.36869249 321.11198317 414.63637481 321.10635948 407.90404987 C321.09823385 398.17022782 321.09562817 388.43641045 321.09437149 378.70258538 C321.09218265 362.91025383 321.08552709 347.11792746 321.07606888 331.32559872 C321.06689043 315.98445315 321.05981171 300.64330898 321.05556107 285.30216122 C321.05529834 284.35659724 321.05503562 283.41103326 321.05476493 282.43681582 C321.0534599 277.69321841 321.05219619 272.949621 321.05095303 268.20602357 C321.04058564 228.85061467 321.02297186 189.49521152 321.00062943 150.1398077 C319.9646109 150.13838268 318.92859238 150.13695766 317.86117935 150.13548946 C308.04934874 150.11874669 298.23792901 150.07575222 288.42631626 150.00771713 C283.38323831 149.97357351 278.34045924 149.9483569 273.29726028 149.94425106 C268.42104709 149.93994089 263.54550669 149.91125485 258.66950417 149.86637592 C256.818634 149.85348724 254.96768295 149.84906227 253.11677361 149.85365391 C238.04333035 149.88231107 225.36013385 148.14293552 214.00062943 137.1398077 C202.17805729 124.93431825 201.25380091 111.31896727 201.29359818 95.27652645 C201.28045681 93.38936949 201.26514519 91.50222651 201.24777603 89.61510372 C201.20819826 84.69145834 201.19775328 79.76818318 201.19374466 74.84439754 C201.18436149 69.80278135 201.14691596 64.76137807 201.11195755 59.71988583 C201.04765943 49.8598695 201.0141919 40.00001539 201.00062943 30.1398077 C175.69669098 30.09308882 150.39275901 30.05781938 125.08878613 30.03618336 C113.33974071 30.0258704 101.59072209 30.01180966 89.84169388 29.98892879 C79.60135412 29.96899556 69.36103377 29.9560914 59.12067515 29.95163071 C53.69840725 29.94902323 48.27619488 29.94289403 42.85394478 29.92834759 C37.74949741 29.91476478 32.6451284 29.9105865 27.54066467 29.91359234 C25.66819648 29.91304249 23.79572564 29.90906923 21.92327309 29.90139675 C19.36387458 29.8914246 16.80477068 29.89384711 14.24536514 29.89929867 C13.1378476 29.89056014 13.1378476 29.89056014 12.00795597 29.88164508 C5.92442809 29.91659202 0.86687406 30.52239568 -3.81187057 34.5773077 Z M231.00062943 53.1398077 C230.94980424 60.4172024 230.9148432 67.69455109 230.89076614 74.97208309 C230.88072578 77.44638435 230.86709079 79.92067379 230.84975052 82.39493465 C230.82541615 85.95705747 230.81412643 89.519023 230.80531693 93.08121395 C230.79499435 94.18252148 230.78467178 95.283829 230.77403641 96.41850948 C230.70752876 106.43334108 230.70752876 106.43334108 235.43812943 114.9523077 C240.66912008 119.41778753 244.6062355 120.26972107 251.34169388 120.25333309 C252.90274605 120.2532198 252.90274605 120.2532198 254.49533463 120.25310421 C256.16277977 120.24536228 256.16277977 120.24536228 257.86391068 120.23746395 C259.01103027 120.236049 260.15814987 120.23463406 261.34003067 120.23317623 C264.99775697 120.22758631 268.65542168 120.21503559 272.31312943 120.2023077 C274.79555041 120.1972914 277.27797237 120.19272872 279.76039505 120.18863583 C285.84049413 120.17762017 291.92055738 120.160892 298.00062943 120.1398077 C294.12462207 115.50591636 290.10656118 111.10024209 285.82753372 106.83731747 C285.24304962 106.25108105 284.65856552 105.66484463 284.05636978 105.06084347 C282.1483484 103.14846551 280.23674652 101.23971531 278.32484818 99.33121395 C276.9904583 97.9961498 275.65621684 96.66093729 274.32211685 95.32558346 C271.53908528 92.5410838 268.7542682 89.75838577 265.96815872 86.9769659 C262.38896339 83.40350072 258.81432081 79.82552004 255.24097347 76.24620819 C252.49340147 73.49503488 249.74346743 70.74623255 246.99279594 67.99815845 C245.67269074 66.67872199 244.35333254 65.35853772 243.03472328 64.03760624 C241.20113355 62.20149348 239.364398 60.36858852 237.52675247 58.53653622 C236.97872971 57.98648922 236.43070694 57.43644222 235.86607742 56.86972713 C233.78362049 54.29681699 233.78362049 54.29681699 231.00062943 53.1398077 Z " fill="#000000" transform="translate(99.99937057495117,-0.13980770111083984)"/>
<path d="M0 0 C0.78408078 -0.00538554 1.56816157 -0.01077108 2.37600237 -0.01631981 C4.99997909 -0.03061277 7.62345228 -0.02349247 10.24745178 -0.01637268 C12.13005987 -0.02207555 14.0126645 -0.02903949 15.89526367 -0.03717041 C21.00682747 -0.05512606 26.11821983 -0.0539289 31.22980571 -0.04822803 C35.49681225 -0.04513967 39.76378569 -0.05122469 44.03078753 -0.05726677 C54.096852 -0.07131829 64.16283162 -0.06974547 74.22889709 -0.05836487 C84.61440416 -0.04688259 94.99965302 -0.0609598 105.38512605 -0.08776134 C114.30161354 -0.10991059 123.21801994 -0.11655748 132.13453299 -0.11068493 C137.46004103 -0.10731235 142.78538354 -0.10975046 148.11086845 -0.12693596 C153.11863942 -0.14239061 158.12602758 -0.1384659 163.13378334 -0.11963081 C164.97119447 -0.11594085 166.80863387 -0.11906524 168.64601898 -0.1295166 C171.15548685 -0.1427006 173.66368255 -0.13120279 176.1730957 -0.11352539 C176.89927013 -0.1231304 177.62544455 -0.1327354 178.37362427 -0.14263147 C183.41443563 -0.06962892 186.25805089 1.23866194 190.15003967 4.38768005 C194.20634365 9.61027863 193.92401511 15.04108148 193.15003967 21.38768005 C190.97327577 25.98307051 188.68695414 28.20077528 184.15003967 30.38768005 C181.45406286 30.67272898 178.99260726 30.79757606 176.30007935 30.77536011 C175.51599856 30.78074565 174.73191778 30.78613118 173.92407697 30.79167992 C171.30010026 30.80597288 168.67662707 30.79885258 166.05262756 30.79173279 C164.17001947 30.79743566 162.28741484 30.8043996 160.40481567 30.81253052 C155.29325187 30.83048617 150.18185951 30.82928901 145.07027364 30.82358813 C140.8032671 30.82049978 136.53629365 30.8265848 132.26929182 30.83262688 C122.20322734 30.84667839 112.13724772 30.84510558 102.07118225 30.83372498 C91.68567519 30.8222427 81.30042633 30.83631991 70.91495329 30.86312145 C61.9984658 30.88527069 53.08205941 30.89191758 44.16554636 30.88604504 C38.84003832 30.88267246 33.51469581 30.88511057 28.18921089 30.90229607 C23.18143992 30.91775072 18.17405177 30.91382601 13.16629601 30.89499092 C11.32888488 30.89130096 9.49144547 30.89442535 7.65406036 30.90487671 C5.1445925 30.9180607 2.6363968 30.9065629 0.12698364 30.8888855 C-0.59919078 30.8984905 -1.32536521 30.90809551 -2.07354492 30.91799158 C-7.11435628 30.84498903 -9.95797155 29.53669817 -13.84996033 26.38768005 C-17.90626431 21.16508148 -17.62393576 15.73427863 -16.84996033 9.38768005 C-13.2150143 1.71390511 -8.09728282 -0.0668104 0 0 Z " fill="#000000" transform="translate(167.84996032714844,331.61231994628906)"/>
<path d="M0 0 C0.78408078 -0.00538554 1.56816157 -0.01077108 2.37600237 -0.01631981 C4.99997909 -0.03061277 7.62345228 -0.02349247 10.24745178 -0.01637268 C12.13005987 -0.02207555 14.0126645 -0.02903949 15.89526367 -0.03717041 C21.00682747 -0.05512606 26.11821983 -0.0539289 31.22980571 -0.04822803 C35.49681225 -0.04513967 39.76378569 -0.05122469 44.03078753 -0.05726677 C54.096852 -0.07131829 64.16283162 -0.06974547 74.22889709 -0.05836487 C84.61440416 -0.04688259 94.99965302 -0.0609598 105.38512605 -0.08776134 C114.30161354 -0.10991059 123.21801994 -0.11655748 132.13453299 -0.11068493 C137.46004103 -0.10731235 142.78538354 -0.10975046 148.11086845 -0.12693596 C153.11863942 -0.14239061 158.12602758 -0.1384659 163.13378334 -0.11963081 C164.97119447 -0.11594085 166.80863387 -0.11906524 168.64601898 -0.1295166 C171.15548685 -0.1427006 173.66368255 -0.13120279 176.1730957 -0.11352539 C176.89927013 -0.1231304 177.62544455 -0.1327354 178.37362427 -0.14263147 C183.41443563 -0.06962892 186.25805089 1.23866194 190.15003967 4.38768005 C194.20634365 9.61027863 193.92401511 15.04108148 193.15003967 21.38768005 C190.97327577 25.98307051 188.68695414 28.20077528 184.15003967 30.38768005 C181.45406286 30.67272898 178.99260726 30.79757606 176.30007935 30.77536011 C175.51599856 30.78074565 174.73191778 30.78613118 173.92407697 30.79167992 C171.30010026 30.80597288 168.67662707 30.79885258 166.05262756 30.79173279 C164.17001947 30.79743566 162.28741484 30.8043996 160.40481567 30.81253052 C155.29325187 30.83048617 150.18185951 30.82928901 145.07027364 30.82358813 C140.8032671 30.82049978 136.53629365 30.8265848 132.26929182 30.83262688 C122.20322734 30.84667839 112.13724772 30.84510558 102.07118225 30.83372498 C91.68567519 30.8222427 81.30042633 30.83631991 70.91495329 30.86312145 C61.9984658 30.88527069 53.08205941 30.89191758 44.16554636 30.88604504 C38.84003832 30.88267246 33.51469581 30.88511057 28.18921089 30.90229607 C23.18143992 30.91775072 18.17405177 30.91382601 13.16629601 30.89499092 C11.32888488 30.89130096 9.49144547 30.89442535 7.65406036 30.90487671 C5.1445925 30.9180607 2.6363968 30.9065629 0.12698364 30.8888855 C-0.59919078 30.8984905 -1.32536521 30.90809551 -2.07354492 30.91799158 C-7.11435628 30.84498903 -9.95797155 29.53669817 -13.84996033 26.38768005 C-17.90626431 21.16508148 -17.62393576 15.73427863 -16.84996033 9.38768005 C-13.2150143 1.71390511 -8.09728282 -0.0668104 0 0 Z " fill="#000000" transform="translate(167.84996032714844,271.61231994628906)"/>
<path d="M0 0 C0.78408078 -0.00538554 1.56816157 -0.01077108 2.37600237 -0.01631981 C4.99997909 -0.03061277 7.62345228 -0.02349247 10.24745178 -0.01637268 C12.13005987 -0.02207555 14.0126645 -0.02903949 15.89526367 -0.03717041 C21.00682747 -0.05512606 26.11821983 -0.0539289 31.22980571 -0.04822803 C35.49681225 -0.04513967 39.76378569 -0.05122469 44.03078753 -0.05726677 C54.096852 -0.07131829 64.16283162 -0.06974547 74.22889709 -0.05836487 C84.61440416 -0.04688259 94.99965302 -0.0609598 105.38512605 -0.08776134 C114.30161354 -0.10991059 123.21801994 -0.11655748 132.13453299 -0.11068493 C137.46004103 -0.10731235 142.78538354 -0.10975046 148.11086845 -0.12693596 C153.11863942 -0.14239061 158.12602758 -0.1384659 163.13378334 -0.11963081 C164.97119447 -0.11594085 166.80863387 -0.11906524 168.64601898 -0.1295166 C171.15548685 -0.1427006 173.66368255 -0.13120279 176.1730957 -0.11352539 C176.89927013 -0.1231304 177.62544455 -0.1327354 178.37362427 -0.14263147 C183.41443563 -0.06962892 186.25805089 1.23866194 190.15003967 4.38768005 C194.20634365 9.61027863 193.92401511 15.04108148 193.15003967 21.38768005 C190.97327577 25.98307051 188.68695414 28.20077528 184.15003967 30.38768005 C181.45406286 30.67272898 178.99260726 30.79757606 176.30007935 30.77536011 C175.51599856 30.78074565 174.73191778 30.78613118 173.92407697 30.79167992 C171.30010026 30.80597288 168.67662707 30.79885258 166.05262756 30.79173279 C164.17001947 30.79743566 162.28741484 30.8043996 160.40481567 30.81253052 C155.29325187 30.83048617 150.18185951 30.82928901 145.07027364 30.82358813 C140.8032671 30.82049978 136.53629365 30.8265848 132.26929182 30.83262688 C122.20322734 30.84667839 112.13724772 30.84510558 102.07118225 30.83372498 C91.68567519 30.8222427 81.30042633 30.83631991 70.91495329 30.86312145 C61.9984658 30.88527069 53.08205941 30.89191758 44.16554636 30.88604504 C38.84003832 30.88267246 33.51469581 30.88511057 28.18921089 30.90229607 C23.18143992 30.91775072 18.17405177 30.91382601 13.16629601 30.89499092 C11.32888488 30.89130096 9.49144547 30.89442535 7.65406036 30.90487671 C5.1445925 30.9180607 2.6363968 30.9065629 0.12698364 30.8888855 C-0.59919078 30.8984905 -1.32536521 30.90809551 -2.07354492 30.91799158 C-7.11435628 30.84498903 -9.95797155 29.53669817 -13.84996033 26.38768005 C-17.90626431 21.16508148 -17.62393576 15.73427863 -16.84996033 9.38768005 C-13.2150143 1.71390511 -8.09728282 -0.0668104 0 0 Z " fill="#000000" transform="translate(167.84996032714844,211.61231994628906)"/>
<path d="M0 0 C1.1088707 -0.00990463 2.21774139 -0.01980927 3.36021423 -0.03001404 C5.17055649 -0.02326157 5.17055649 -0.02326157 7.01747131 -0.01637268 C8.296035 -0.02323593 9.57459869 -0.03009918 10.89190674 -0.03717041 C14.39197481 -0.05509243 17.89179204 -0.0539353 21.39189219 -0.04822803 C24.31682719 -0.04513467 27.2417141 -0.05123027 30.16664225 -0.05726677 C37.06845679 -0.07130732 43.97014753 -0.06975476 50.8719635 -0.05836487 C57.98562094 -0.0468846 65.09890134 -0.06095856 72.2125091 -0.08776134 C78.32648047 -0.1099328 84.44033362 -0.11655248 90.55434233 -0.11068493 C94.2031387 -0.1073175 97.8516934 -0.10971587 101.50045586 -0.12693596 C105.57017188 -0.14530495 109.63915637 -0.13120332 113.70887756 -0.11402893 C115.51618347 -0.12853088 115.51618347 -0.12853088 117.36000061 -0.14332581 C123.66530589 -0.08754838 127.68100034 0.05650601 132.4278717 4.38768005 C136.48417569 9.61027863 136.20184714 15.04108148 135.4278717 21.38768005 C133.24027367 26.00594257 130.92699743 28.10479822 126.4278717 30.38768005 C123.76789951 30.76799679 123.76789951 30.76799679 120.85574341 30.77536011 C119.19243736 30.79021706 119.19243736 30.79021706 117.49552917 30.80537415 C116.28863434 30.8008725 115.0817395 30.79637085 113.83827209 30.79173279 C112.5597084 30.79859604 111.28114471 30.80545929 109.96383667 30.81253052 C106.4637686 30.83045254 102.96395136 30.82929541 99.46385121 30.82358813 C96.53891622 30.82049478 93.61402931 30.82659037 90.68910116 30.83262688 C83.78728662 30.84666743 76.88559587 30.84511487 69.98377991 30.83372498 C62.87012246 30.8222447 55.75684207 30.83631867 48.64323431 30.86312145 C42.52926294 30.88529291 36.41540979 30.89191258 30.30140108 30.88604504 C26.65260471 30.88267761 23.00405001 30.88507597 19.35528755 30.90229607 C15.28557153 30.92066505 11.21658704 30.90656342 7.14686584 30.88938904 C5.33955994 30.90389099 5.33955994 30.90389099 3.4957428 30.91868591 C-2.80956248 30.86290849 -6.82525693 30.71885409 -11.5721283 26.38768005 C-15.62843228 21.16508148 -15.34610373 15.73427863 -14.5721283 9.38768005 C-11.49275947 2.8867903 -7.15706033 0.01809646 0 0 Z " fill="#000000" transform="translate(165.57212829589844,391.61231994628906)"/>
</svg>
