<?xml version="1.0" encoding="UTF-8"?>
<svg version="1.1" xmlns="http://www.w3.org/2000/svg" width="278" height="278">
<path d="M0 0 C1.1240625 -0.03287109 2.248125 -0.06574219 3.40625 -0.09960938 C12.66109523 -0.15977681 12.66109523 -0.15977681 16.33203125 2.6640625 C18.6025947 5.4103999 19.4720216 6.77854058 19.9375 10.25 C20.14246094 11.54744141 20.14246094 11.54744141 20.3515625 12.87109375 C20.52336526 14.48358538 20.64999665 16.10218358 20.7109375 17.72265625 C20.84976084 20.57921345 20.96436811 22.78761009 23.06640625 24.85546875 C25.75178233 26.55485361 27.80485716 27.4375 31 27.4375 C33.55310923 26.50659786 33.55310923 26.50659786 35.65234375 25.46484375 C41.00728462 22.91094888 44.66495214 21.55814868 50.625 22.4375 C55.76383234 26.004615 58.49549418 29.92140229 61.4375 35.375 C61.83130859 36.06529297 62.22511719 36.75558594 62.63085938 37.46679688 C65.48483347 42.63136406 67.19991133 46.85039903 65.875 52.8125 C63.33133376 58.20121475 57.57091963 61.45756407 52.625 64.4375 C51.965 64.4375 51.305 64.4375 50.625 64.4375 C50.31652577 68.34005768 50.43501535 71.68978901 51.625 75.4375 C54.21968582 77.99013256 56.85929912 79.78905738 59.9609375 81.68359375 C63.35758334 83.91980193 65.12496355 85.975855 66.4375 89.8125 C66.8768475 95.96336493 63.17724209 101.43536328 60.25 106.625 C59.86328125 107.33591797 59.4765625 108.04683594 59.078125 108.77929688 C55.30338797 115.51175571 55.30338797 115.51175571 51.625 117.4375 C45.61765871 118.74344376 40.86867202 117.2770174 35.4375 114.6875 C31.53304825 112.73609997 31.53304825 112.73609997 27.37890625 112.99609375 C25.25755825 114.21273204 25.25755825 114.21273204 22.625 116.4375 C21.965 116.4375 21.305 116.4375 20.625 116.4375 C20.58761719 117.53449219 20.55023438 118.63148438 20.51171875 119.76171875 C20.44603347 121.21617857 20.37958701 122.67060416 20.3125 124.125 C20.28994141 124.84623047 20.26738281 125.56746094 20.24414062 126.31054688 C20.01955101 130.78192197 19.47076902 133.79410451 16.625 137.4375 C11.67669543 140.73636971 6.06408454 139.80645625 0.25 139.8125 C-0.98234375 139.83699219 -2.2146875 139.86148438 -3.484375 139.88671875 C-5.26714844 139.89251953 -5.26714844 139.89251953 -7.0859375 139.8984375 C-8.17181152 139.90665527 -9.25768555 139.91487305 -10.37646484 139.92333984 C-14.08940367 139.32174822 -15.72626611 138.06374185 -18.375 135.4375 C-20.31351421 130.59121448 -20.68515689 125.83295031 -20.93359375 120.671875 C-21.658748 117.00118267 -24.04469479 115.70174417 -26.875 113.4375 C-31.791215 112.03286714 -34.07702995 113.96547022 -38.4921875 116.203125 C-42.72792222 118.01680003 -46.87537649 118.55088807 -51.375 117.4375 C-56.46343274 114.34230684 -58.9150431 109.80886004 -61.75 104.75 C-62.21277344 103.98494141 -62.67554688 103.21988281 -63.15234375 102.43164062 C-65.95704543 97.46271392 -66.8277827 94.0049867 -65.95776367 88.34130859 C-64.73053528 84.33212259 -61.75327676 82.25170423 -58.265625 80.19140625 C-54.96684245 78.1267427 -52.82567786 76.64999316 -51.44140625 72.92578125 C-51.06477538 69.59190058 -51.17886596 67.58935684 -52.375 64.4375 C-55.30209732 61.57988867 -58.09683488 59.59685974 -61.5546875 57.41015625 C-64.43386374 55.39632799 -65.16228128 54.60524857 -66.375 51.4375 C-66.85621498 44.57445775 -64.13551973 39.24426604 -60.625 33.5625 C-59.97917969 32.44488281 -59.97917969 32.44488281 -59.3203125 31.3046875 C-56.86999061 27.22570854 -54.8998873 24.3683151 -50.375 22.4375 C-43.79575662 21.53001815 -39.7027183 23.37760278 -33.890625 26.44140625 C-31.52234386 27.58001 -31.52234386 27.58001 -29.421875 27.33984375 C-26.31674082 25.97097734 -23.97891066 24.65244475 -21.375 22.4375 C-20.33091531 18.90558797 -20.33091531 18.90558797 -20.1875 15 C-19.81478332 9.99565742 -19.53903172 6.44527351 -16.375 2.4375 C-11.41074109 -0.70931891 -5.67892427 0.0291061 0 0 Z M-8.375 11.4375 C-8.55675781 13.33435547 -8.55675781 13.33435547 -8.7421875 15.26953125 C-8.91102147 16.92973198 -9.08031633 18.58988589 -9.25 20.25 C-9.32863281 21.08337891 -9.40726563 21.91675781 -9.48828125 22.77539062 C-9.57207031 23.57783203 -9.65585938 24.38027344 -9.7421875 25.20703125 C-9.81550293 25.94542236 -9.88881836 26.68381348 -9.96435547 27.44458008 C-10.375 29.4375 -10.375 29.4375 -12.375 32.4375 C-14.6171875 33.71875 -14.6171875 33.71875 -17.25 34.9375 C-19.90101569 36.17200283 -22.1922731 37.29534183 -24.50390625 39.09375 C-26.375 40.4375 -26.375 40.4375 -29.4375 40.4375 C-33.9109863 39.61445598 -37.82880839 37.39738272 -41.82421875 35.30078125 C-44.28112629 34.22370716 -44.28112629 34.22370716 -46.50390625 34.91015625 C-49.15224873 37.07195565 -50.18284686 39.48153647 -51.625 42.5625 C-52.14578125 43.65820312 -52.6665625 44.75390625 -53.203125 45.8828125 C-53.78320312 47.14738281 -53.78320312 47.14738281 -54.375 48.4375 C-53.37597656 49.10136719 -52.37695312 49.76523438 -51.34765625 50.44921875 C-50.04374695 51.34037979 -48.74039001 52.23234941 -47.4375 53.125 C-46.77814453 53.56005859 -46.11878906 53.99511719 -45.43945312 54.44335938 C-40.63904202 57.76672091 -40.63904202 57.76672091 -39.45703125 60.76953125 C-39.42996094 61.64996094 -39.40289062 62.53039062 -39.375 63.4375 C-39.23964844 65.3246875 -39.23964844 65.3246875 -39.1015625 67.25 C-39.06206198 68.64568496 -39.02833122 70.04154365 -39 71.4375 C-38.96261719 72.13617188 -38.92523438 72.83484375 -38.88671875 73.5546875 C-38.82133532 77.40504502 -39.15937159 79.16957507 -41.59765625 82.19921875 C-42.51417969 82.93785156 -43.43070313 83.67648438 -44.375 84.4375 C-45.59123047 85.43716797 -45.59123047 85.43716797 -46.83203125 86.45703125 C-47.60933594 87.04871094 -48.38664062 87.64039063 -49.1875 88.25 C-49.97769531 88.85457031 -50.76789063 89.45914063 -51.58203125 90.08203125 C-52.17371094 90.52933594 -52.76539063 90.97664063 -53.375 91.4375 C-52.79392368 95.1977985 -51.72300504 97.96785032 -49.8125 101.25 C-49.12994141 102.43529297 -49.12994141 102.43529297 -48.43359375 103.64453125 C-48.08425781 104.23621094 -47.73492187 104.82789063 -47.375 105.4375 C-42.74525643 104.97452564 -39.40280577 103.60020587 -35.40234375 101.375 C-32.99806516 100.26319487 -31.01833816 99.68710314 -28.375 99.4375 C-26.19921875 100.29296875 -26.19921875 100.29296875 -24.0625 101.625 C-21.74317317 103.060035 -19.66257129 104.33640839 -17.0859375 105.2421875 C-14.73827727 106.07027129 -13.20517375 106.73741213 -11.375 108.4375 C-10.0180572 112.38550168 -9.6869757 116.29192462 -9.375 120.4375 C-9.17454114 122.02184954 -8.96753806 123.60540505 -8.75 125.1875 C-8.564375 126.79625 -8.564375 126.79625 -8.375 128.4375 C-3.095 128.4375 2.185 128.4375 7.625 128.4375 C8.88702033 126.26295119 8.88702033 126.26295119 8.73828125 122.76953125 C9.14928921 110.86615914 9.14928921 110.86615914 13.3203125 106.828125 C16.36748823 105.10995844 19.37640702 103.72535099 22.625 102.4375 C23.615 101.7775 24.605 101.1175 25.625 100.4375 C31.11354335 99.90527762 35.16471308 101.13631757 40.0625 103.4375 C40.69865234 103.72367187 41.33480469 104.00984375 41.99023438 104.3046875 C43.54044015 105.00402845 45.08351611 105.71913857 46.625 106.4375 C47.82753816 104.53023249 49.01158949 102.6112988 50.1875 100.6875 C50.84878906 99.62015625 51.51007813 98.5528125 52.19140625 97.453125 C53.76279226 94.6738539 53.76279226 94.6738539 53.6796875 92.3125 C52.07754962 89.46425488 49.8439618 88.05289581 47.1875 86.1875 C46.19878906 85.48109375 45.21007812 84.7746875 44.19140625 84.046875 C41.84747961 82.26040888 41.84747961 82.26040888 39.625 82.4375 C37.98791677 61.96640381 37.98791677 61.96640381 41.67578125 56.26953125 C44.24544166 54.30136172 46.73321502 52.87706011 49.625 51.4375 C51.275 50.1175 52.925 48.7975 54.625 47.4375 C51.985 43.1475 49.345 38.8575 46.625 34.4375 C40.38294069 36.39517514 40.38294069 36.39517514 34.5 39.1875 C30.65225093 40.86043438 28.64847633 40.56689687 24.625 39.4375 C22.75465428 38.30222465 21.05589146 37.05733848 19.33203125 35.7109375 C16.93806078 33.92504648 14.31388849 32.71792309 11.625 31.4375 C9.50453008 29.31703008 9.93110784 24.94389651 9.625 22 C9.25612813 16.55381411 9.25612813 16.55381411 7.625 11.4375 C2.345 11.4375 -2.935 11.4375 -8.375 11.4375 Z " fill="#E2E2E2" transform="translate(192.375,138.5625)"/>
<path d="M0 0 C11.37216073 8.74911771 20.45566777 21.01418979 22.4453125 35.62109375 C22.53425781 36.80832031 22.53425781 36.80832031 22.625 38.01953125 C22.74488281 39.36144531 22.74488281 39.36144531 22.8671875 40.73046875 C23.57175144 56.18943046 18.28197477 69.48155862 8.4375 81.20703125 C-0.78121038 91.04341067 -13.39792856 97.45128622 -26.94140625 98.22265625 C-44.02508707 98.42305133 -57.41209019 94.44747911 -70.0859375 82.4375 C-80.99375329 70.91542155 -85.94597313 57.08502203 -85.6171875 41.33984375 C-84.5405504 26.5794964 -78.12204415 13.45214818 -67.33203125 3.4296875 C-48.059107 -12.27889144 -20.7716826 -14.34091459 0 0 Z M-65.4375 19.33203125 C-72.50337247 29.13308016 -74.21679802 39.0606546 -73.375 51.01953125 C-71.61285581 61.54797258 -65.71070202 71.36798127 -57.375 78.01953125 C-49.29539322 83.37190614 -41.29169437 86.59007827 -31.5625 86.45703125 C-30.77496338 86.44873291 -29.98742676 86.44043457 -29.17602539 86.43188477 C-16.27933578 86.06000485 -7.37268476 80.46968247 1.375 71.26953125 C9.79499615 61.22428003 11.57690745 49.74291389 10.625 37.01953125 C8.99941694 29.17028735 5.95265317 22.97478754 0.625 17.01953125 C-0.5196875 15.72015625 -0.5196875 15.72015625 -1.6875 14.39453125 C-10.63159263 6.49044939 -21.54091765 1.03981992 -33.77734375 1.63671875 C-47.14470686 3.60664594 -56.57063475 9.39039445 -65.4375 19.33203125 Z " fill="#E2E2E2" transform="translate(138.375,30.98046875)"/>
<path d="M0 0 C1.72969688 -0.00202385 3.45939293 -0.00493788 5.18908691 -0.00869751 C8.79313374 -0.01309678 12.39695601 -0.00676131 16.00097656 0.00732422 C20.62592919 0.02451811 25.25036337 0.01449593 29.87529755 -0.00339317 C33.43713325 -0.01420846 36.99884486 -0.01079689 40.5606842 -0.0030098 C42.26717694 -0.00100685 43.97368088 -0.00347039 45.68016052 -0.01044846 C48.05465877 -0.01803724 50.42830029 -0.00650069 52.80273438 0.01025391 C53.50919098 0.00418121 54.21564758 -0.00189148 54.94351196 -0.00814819 C56.89685059 0.01748657 56.89685059 0.01748657 60.03125 0.3984375 C62.03125 3.3984375 62.03125 3.3984375 61.78125 6.4609375 C61.03125 9.3984375 61.03125 9.3984375 59.03125 11.3984375 C56.12463379 11.65672302 56.12463379 11.65672302 52.35351562 11.66967773 C51.66702942 11.67490448 50.98054321 11.68013123 50.27325439 11.68551636 C48.77930492 11.69577099 47.28531957 11.70153931 45.79133606 11.70339775 C43.41911197 11.70705963 41.0473067 11.72378573 38.6751709 11.74415588 C31.92936035 11.79955239 25.18348535 11.83009938 18.4375 11.85473633 C14.31126923 11.87071405 10.18532907 11.90105088 6.05924988 11.93950081 C4.49337376 11.95107475 2.92744537 11.95708049 1.36152649 11.95718193 C-12.44505036 11.95839945 -23.44022438 13.56095843 -33.9453125 23.21484375 C-42.2665198 31.97866846 -44.06166188 42.20743254 -44.28515625 53.85546875 C-44.30593735 54.75843185 -44.32671844 55.66139496 -44.34812927 56.59172058 C-44.4133028 59.46471847 -44.47235955 62.33780464 -44.53125 65.2109375 C-44.57446586 67.16342044 -44.61808112 69.11589458 -44.66210938 71.06835938 C-44.76895107 75.84496253 -44.87030857 80.62165414 -44.96875 85.3984375 C-43.9333609 85.39399628 -42.8979718 85.38955505 -41.83120728 85.38497925 C-32.0897561 85.34449537 -22.34832191 85.31448308 -12.6068058 85.29481316 C-7.59818653 85.28436083 -2.58963498 85.27017529 2.41894531 85.24755859 C7.24943333 85.22588175 12.07985606 85.2138798 16.91038895 85.20868301 C18.75644585 85.20497796 20.60249906 85.19774325 22.44852829 85.18697739 C25.02745124 85.17253093 27.60610191 85.17045667 30.18505859 85.17138672 C31.33843971 85.16060089 31.33843971 85.16060089 32.51512146 85.14959717 C37.80314568 85.17033318 37.80314568 85.17033318 40.03125 87.3984375 C40.28125 90.8984375 40.28125 90.8984375 40.03125 94.3984375 C37.40786991 97.02181759 35.53797534 96.64346796 31.96618652 96.66949463 C30.69128357 96.66342194 30.69128357 96.66342194 29.390625 96.65722656 C28.04901306 96.66248352 28.04901306 96.66248352 26.68029785 96.66784668 C23.7138704 96.67667344 20.74768002 96.67081151 17.78125 96.6640625 C15.72623651 96.66540888 13.67122333 96.66734918 11.61621094 96.66986084 C7.30530775 96.67281338 2.99448733 96.66851026 -1.31640625 96.65917969 C-6.85173124 96.64778511 -12.3868623 96.65434388 -17.92218018 96.66632462 C-22.16684438 96.67353969 -26.41146235 96.67125691 -30.65612793 96.66606903 C-32.69755069 96.66473156 -34.7389776 96.66638365 -36.78039551 96.67102814 C-39.62975237 96.67608757 -42.47879188 96.66839136 -45.328125 96.65722656 C-46.1780603 96.66127502 -47.02799561 96.66532349 -47.90368652 96.66949463 C-53.74022215 96.62696535 -53.74022215 96.62696535 -55.96875 94.3984375 C-56.23617554 92.11270142 -56.23617554 92.11270142 -56.25927734 89.22119141 C-56.27203705 88.13891266 -56.28479675 87.05663391 -56.29794312 85.94155884 C-56.30016876 84.76459442 -56.30239441 83.58763 -56.3046875 82.375 C-56.3113443 81.16331146 -56.3180011 79.95162292 -56.32485962 78.70321655 C-56.33500735 76.12914551 -56.33967599 73.55504805 -56.33935547 70.98095703 C-56.34369375 67.07408951 -56.37989595 63.16838357 -56.41796875 59.26171875 C-56.42384368 56.75781635 -56.42780854 54.25390859 -56.4296875 51.75 C-56.44405853 50.59327789 -56.45842957 49.43655579 -56.47323608 48.24478149 C-56.39391333 33.88658461 -51.33941304 23.08524295 -41.65625 12.6484375 C-29.47592898 1.12063368 -15.96914989 -0.06602029 0 0 Z " fill="#E8E8E8" transform="translate(66.96875,149.6015625)"/>
<path d="M0 0 C5.2056632 3.87012789 9.72487505 9.06900025 11.0859375 15.55078125 C12.04140244 24.86125627 11.82628009 32.87376968 6.0859375 40.55078125 C0.73131158 46.68532007 -5.08309193 49.7162953 -13.09765625 50.86328125 C-20.38472421 51.27894288 -27.31624028 49.10776193 -33.25 44.890625 C-39.22007618 39.48648541 -42.12432896 33.0970708 -43.25390625 25.1640625 C-43.59936267 17.24620143 -41.29836616 10.8352624 -36.2890625 4.73828125 C-26.73886713 -5.14004018 -12.03783501 -7.0987233 0 0 Z M-28.2890625 14.17578125 C-31.34700408 18.64508048 -31.5258208 22.21974466 -30.9140625 27.55078125 C-29.57025907 31.71171478 -27.36186524 34.57038222 -23.7265625 36.98828125 C-19.54174834 39.06272776 -15.48713158 39.37693789 -10.9140625 38.55078125 C-6.56675025 36.33611275 -3.42973413 33.7435673 -0.9140625 29.55078125 C0.50141369 24.78382273 0.56219807 20.81056438 -1.4765625 16.23828125 C-4.05873156 11.82927149 -7.05272299 9.34965889 -12.0546875 7.953125 C-19.23683321 6.69502805 -23.3711514 8.74019529 -28.2890625 14.17578125 Z " fill="#E2E2E2" transform="translate(207.9140625,185.44921875)"/>
</svg>
